<svg width="35" height="38" viewBox="0 0 35 38" fill="none" xmlns="http://www.w3.org/2000/svg">
<path d="M33.3831 14.1248C33.2333 13.8841 33.0317 13.6885 32.7964 13.5556C32.5611 13.4228 32.2996 13.357 32.0355 13.364H10.9386C10.4934 13.3849 10.0622 13.542 9.69304 13.8179C9.32385 14.0938 9.03112 14.4776 8.84745 14.9266C8.84441 14.9745 8.84441 15.0226 8.84745 15.0705L6.13366 25.7001V7.19604H12.1653L14.591 10.8866C14.6775 11.0175 14.7908 11.124 14.9217 11.1972C15.0525 11.2705 15.1972 11.3085 15.3438 11.308H30.2975C30.2975 10.7628 30.1017 10.2398 29.7531 9.85423C29.4045 9.46866 28.9318 9.25204 28.4388 9.25204H15.8178L13.6709 5.983C13.4979 5.72107 13.2713 5.50815 13.0096 5.36164C12.7479 5.21513 12.4586 5.1392 12.1653 5.14004H6.13366C5.64069 5.14004 5.16791 5.35665 4.81932 5.74223C4.47074 6.1278 4.2749 6.65075 4.2749 7.19604V30.5214C4.28941 30.8913 4.43506 31.2401 4.68032 31.4921C4.92558 31.7442 5.25071 31.8792 5.58533 31.8681H28.7548C28.9622 31.8772 29.1663 31.8093 29.3348 31.6751C29.5032 31.541 29.6262 31.3484 29.6842 31.1279L33.5783 15.6051C33.6509 15.3584 33.6711 15.0964 33.6372 14.8397C33.6034 14.5829 33.5164 14.3383 33.3831 14.1248Z" fill="white"/>
</svg>
