<svg xmlns="http://www.w3.org/2000/svg" viewBox="0 0 3213 1634">
    <defs>
        <style>
            .cls-1 {
                fill: #178958;
            }

            .cls-2 {
                fill: #0f1211;
            }

            .cls-3 {
                fill: #0e693f;
            }

            .cls-4 {
                fill: #0d1310;
            }

            .cls-5 {
                fill: #0f1512;
            }

            .cls-6 {
                fill: #117c4c;
            }

            .cls-7 {
                fill: #014117;
            }

            .cls-8 {
                fill: #053520;
            }

            .cls-9 {
                fill: #117b4b;
            }

            .cls-10 {
                fill: #02240e;
            }

            .cls-11 {
                fill: #919191;
            }

            .cls-12 {
                fill: #178957;
            }

            .cls-13 {
                fill: #161616;
            }

            .cls-14 {
                fill: #141615;
            }

            .cls-15 {
                fill: #1a1a1a;
            }

            .cls-16 {
                fill: #1e1e1e;
            }

            .cls-17 {
                fill: #7e7e7e;
            }

            .cls-18 {
                fill: #022510;
            }

            .cls-19 {
                fill: #111714;
            }

            .cls-20 {
                fill: #178a58;
            }

            .cls-21 {
                fill: #5f5f5f;
            }

            .cls-22 {
                fill: #c4d6cb;
            }

            .cls-23 {
                fill: #09461d;
            }

            .cls-24 {
                fill: #037042;
            }

            .cls-25 {
                fill: #07451c;
            }
        </style>
    </defs>
    <g id="Calque_1" data-name="Calque 1">
        <path class="cls-1"
            d="M415.87,1634h-168c2.14-2.74,3.92-5.88,6.48-8.13,6.19-5.45,10.13-12,11.42-20.1,4.88-3.36,10-6.48,14.61-10.14,8-6.31,15.73-13,23.58-19.45,10.88-8.93,19.88-19.51,27.84-31.09,24-35,37-73.35,36.19-116.08q-.3-14.49-.56-29c.88-1.33,2.12-2.54,2.58-4,7.2-22.72,16.72-44.62,20.61-68.5,3.12-19.22,9.63-37.86,13.81-56.94,2.6-11.91,3.62-24.16,5.39-36.25,1.29-8.83,2.69-17.64,4-26.47,1.76-12.09,2.57-24.4,5.37-36.24,6.82-28.85,18.11-56.21,30.49-83,15.11-32.72,35.62-62.2,57.41-90.72,13.87-18.16,29-35.36,43-53.42,22-28.37,46.43-54.54,70.83-80.77a261.28,261.28,0,0,0,23.12-28.53c11.76-16.89,22.81-34.28,33.89-51.62,5.15-8.07,9.54-16.63,14.52-24.81,2.93-4.8,6.2-9.41,9.56-13.91,3.77-5,8.06-9.7,11.7-14.82,10.39-14.59,20.78-29.19,30.65-44.14,2.18-3.32,2.21-8.06,3.23-12.14.07-1.24.14-2.47.22-3.71l0,0c2.34-1.48,5.37-2.72,2-6.07,1.41-8-2.85-13.15-8.84-17.27-3.52-2.42-7.31-4.43-11-6.65-4.66-2.83-8.69-6.1-8.31-12.33,9.4-16,18.76-31.94,28.22-47.86,3.27-5.5,9.54-7.32,14.61-6.82,17.15,1.69,33,10,33.31,32.08a133.62,133.62,0,0,1-13.08,60.72A552.74,552.74,0,0,1,733.91,750c-3.43,2.4-7.1,4.52-10.21,7.27-4.41,3.9-8.38,8.29-12.55,12.45-7.28,7.24-15.5,13.73-19.2,23.86q-9.36,25.67-18.72,51.33c-1.82,5-4.55,9.85-5.18,15a283.22,283.22,0,0,0-2.12,32.67c-.08,10.24,2.27,20.62,1.24,30.7-1.74,17-3.18,34.22-8.35,50.76-4,12.63-5.62,26.11-12.91,37.48-11.28,17.58-21.88,35.74-38.14,49.5-4.55,3.85-9.47,7.36-13.52,11.68-13.37,14.27-29.42,24.67-46.69,33.43-7.71,3.91-15.54,7.63-22.9,12.12q-19.06,11.65-37.55,24.27c-5.7,3.91-11.48,8.24-15.78,13.54-7.06,8.72-13.86,17.9-19.12,27.76-9.89,18.52-23.2,35.88-22.81,58.48,0,.93-.69,1.86-1,2.8-9.23,26.76-12.15,54.77-16.29,82.54-.2,1.33,1.13,2.89,1.75,4.34l0,4c-4.58,2.19-4.84,3.26-2,8-1.26,14.43-3,28.84-3.61,43.29-.36,8.17,1.31,16.41,1.57,24.63.82,26.44,1.28,52.9,2.15,79.34.36,11.21,1.34,22.39,2.21,33.57.09,1.12,1.3,2.15,2,3.22Z" />
        <path class="cls-2"
            d="M2809.13,1634c-.63-34.16-.85-68.33-2-102.47-1-28.83-2.59-57.66-4.69-86.43-2.51-34.41-7.79-68.46-14.14-102.38-6.29-33.57-14.68-66.61-23.74-99.5-3.16-11.5-5.73-23.34-10.49-34.18-7.6-17.28-16.48-34-25.43-50.66-5.35-10-15.11-15.07-25.38-20.28v270c-6.36,1.43-4.28-3.63-4.37-6.23-.64-17.25-1.31-34.51-1.39-51.77q-.51-105.35-.63-210.71c0-3.55-.41-6.53-3.84-8.48-12.41-7.05-20.69-18.54-30.36-28.52-6.35-6.56-12.6-13.2-19.77-20.72-.35,3.15-.73,5-.74,6.88,0,21.24-.06,42.47.05,63.71.23,46.16.65,92.32.78,138.48.11,36.6-.46,73.2,0,109.8.19,14.22-1.52,27.83-6.5,41-5.1,13.52-11.51,26.28-23.63,35a100.62,100.62,0,0,1-50.66,19.09c-22.47,1.91-45.19,1.19-67.81,1.19-28.62,0-57.24-.37-85.85-.68-6.63-.07-13.25-.53-19.87-.81l.48-3.17a3.86,3.86,0,0,0,.12-1.51l82.88,0c20.76,0,41.52-.26,62.28,0,15.63.22,31.08-.71,46.17-4.93,38.92-10.89,57.13-46.47,57.34-76.46.24-34.49-.61-69-.8-103.48-.23-44.21-.14-88.41-.44-132.62-.21-30.73-1.06-61.47-1.15-92.2,0-10.8-2.21-20.74-5.84-30.91s-7.12-21.34-6.66-31.88c1.13-25.45,4.46-50.82,7.21-76.18,1.07-9.82,4.2-19.55,4.27-29.34.21-27.86-1.06-55.73-1-83.59,0-33.93,1-67.86,1.18-101.79.16-25.88-.42-51.77-.3-77.65.2-46.21.69-92.42,1-138.62.28-40.68.46-81.35.75-122q.5-68.37,1.08-136.74c.2-27.87.07-55.75.46-83.62.54-37.65-24.29-73.29-66.51-81-21.59-3.93-43.38-2.52-65.06-2.87-35.34-.58-70.71.32-106.06.46-50.59.2-101.17.25-151.76.41-59.45.19-118.9.51-178.34.62-58.43.1-116.86,0-175.29,0-24.4,0-48.81.4-73.21.62-.27-1.49-.54-3-.8-4.47,32.91-.51,65.83-1.36,98.75-1.45,47.92-.13,95.85.48,143.78.38,28.21-.06,56.42-1.17,84.64-1.3q154.82-.75,309.64-1.1c29.29-.07,58.6,1.15,87.87.6,17.36-.33,33.5,3.25,49.37,9.52,17.9,7.07,31,19.11,38.35,37a93.44,93.44,0,0,1,5,15.11c2,9,4.7,18.14,4.78,27.24.41,45.26.08,90.53,0,135.79q-.21,79.2-.5,158.4c-.09,20.27-.56,40.54-.57,60.81,0,28.87.44,57.75.34,86.62-.13,36.93-.7,73.87-.92,110.81-.15,24.63-.1,49.26,0,73.88.09,23.64.34,47.27.52,70.91v11.61l1,0,2.16-11.59c4.14-23.17,8-46.39,12.58-69.46,2-10.13,4.6-20.11,3.81-30.51-.87-11.58-1.76-23.18-3.18-34.7-2.45-19.81-4.66-39.43,1.47-59.14,2.33-7.48,3-15.66,3.34-23.56,1.08-26.52,2.07-53.06,2.28-79.59.16-19.76,4.22-38.18,14.5-55.12,3.51-3.53,6.53-7.84,10.65-10.39,5.72-3.54,6.67-8.16,6.6-14.19-.24-22.63-.23-45.27-.15-67.9.22-64.87.39-129.75.85-194.62.15-20.89,1.16-41.77,1.78-62.65l3.5.5c.22,32.22.63,64.44.59,96.66-.05,57.07-.43,114.14-.49,171.21,0,4.5,1.42,9,2.17,13.51l-.24,4.74c-.61,2.4-1.72,4.78-1.77,7.19-.2,10.55-.15,21.09-.06,31.64a68.09,68.09,0,0,0,.81,7.37c16.55,2.35,17.16,2.77,26.33,16.53a16.28,16.28,0,0,0,2.87,2.67q2.33,7.86,4.64,15.74c1.12,13.84,2.27,27.68,3.34,41.53.26,3.31,0,6.7.48,10,3.77,23.86,7.68,47.69,11.55,71.53.74,4.57,2.14,9.15,2.06,13.71a47.33,47.33,0,0,0,5.56,22.94,165.35,165.35,0,0,1,8.19,19.24c1,2.92.82,6.31,1.17,9.48L2763,712c-.9-2.56-1.8-5.13-2.69-7.69l-1.67.47c.38,2.44.75,4.88,1.13,7.32,2.28,11.57,4.44,23.16,6.89,34.69,4.14,19.54,8.47,39.05,12.71,58.56-.74,4.28.48,7,5.4,6.64.42,10.2-.82,20.71,4.69,30,3.9,6.6,5.35,15,13.94,18.27,6.52,2.49,12.91,1.86,19.5.9,2-.29,4.16.49,6.25.79l-23,6,3.1,6.05c-11.33-3.68-17.72-10.38-21.41-19.51-3.82-9.44-6.91-19.18-10.31-28.78l-.64-3.77-3.54-16.12-1-5.84-8.94-42.18c-.15-1.28-.31-2.57-.46-3.86-.49-2-1-4.11-1.46-6.16-.19-1.28-.38-2.56-.58-3.84-.22-2.62-.29-5.27-.7-7.86-2.28-14.37-5.54-28.64-6.74-43.09-1.61-19.54-6.51-38.2-12-56.82l-.67-.66c-.7-4,4.46-7.6.59-11.7-1.45-21.73-3.28-43.43-4.21-65.18a117.43,117.43,0,0,0-8.65-39.41c-3.63-8.94-9.7-16.74-21.11-16.81-5.43-1.49-9.78.78-13.68,4.14-7.69,6.61-12.77,15-17,24.18s-3.31,18.78-3.82,28.36c-.93,17.16-2.74,34.29-3.37,51.46-.6,16.26,0,32.57-.25,48.85a42.75,42.75,0,0,1-2.24,13.6,63.2,63.2,0,0,0-3.95,26.36q2.08,29.2,4.19,58.42l2.42,14.41c-2.83,14.25-5.73,28.48-8.46,42.75-2.11,11-3.86,22.16-6.08,33.18-.77,3.8-3,7.31-3.68,11.12-3.49,20.53-6.41,41.15-10.15,61.63-1.08,6-1.26,11,3,15.61,2.89,3.15,5.73,6.36,8.59,9.54l2,4.35c-8.79,0-10.63-8.88-16.34-13-1.7,7.46-4.1,14.65-4.86,22-1.85,17.75-3,35.58-4.31,53.38-1.12,15.68,4.36,30.17,10,44.18a110.7,110.7,0,0,0,17.26,28.88c8.77,10.66,19.42,19.78,29.38,29.44,1.35,1.31,3.38,1.91,5.09,2.84,2.38,2.73,4.29,6.16,7.2,8.08,13,8.55,26,17.13,39.51,24.85,21,12,39.63,26.89,54.08,46.37,8.27,11.16,15.35,23.22,19.7,36.61l-7.54-8.45-6.87-7.73,0,0c-1.73-3.49-2.79-7.57-5.29-10.37q-13.63-15.18-28.11-29.61a59.54,59.54,0,0,0-24.47-14.5,97.06,97.06,0,0,0,7,16.1c6.1,11.35,13.16,22.19,16.66,34.85,3.17,11.48,7.18,22.72,10.54,34.14,4.67,15.88,9.65,31.69,13.44,47.79,4.23,18,7,36.39,10.89,54.49,8.13,37.68,11.88,75.84,13.55,114.29,1.05,24.17,2.6,48.32,4,72.47.45,7.93,1.09,15.85,1.52,23.78a86.79,86.79,0,0,1-.05,9c-.43,8.61-1.44,17.22-1.34,25.81.15,12.59,1.06,25.18,1.65,37.76ZM2758,701.46c.14-.79.19-1.13.25-1.47-.12.08-.33.14-.34.23A8.42,8.42,0,0,0,2758,701.46Z" />
        <path class="cls-3"
            d="M413.81,1336l0-4c1.33-4,3.32-7.87,3.88-12,4.31-31.77,16.08-61.16,28.4-90.37,1.75-4.15,4.81-7.75,7.26-11.6l2.5-2.12-.06.06c2.79-3.19,6.52-6,8.2-9.64,5.84-12.81,16.33-21.6,25.65-31.44,2.28-2.41,4.71-4.68,7-7.11a78.73,78.73,0,0,1,29-20l.27.28c-4.24,8.59-8.61,17.12-12.67,25.79-3.5,7.47-6.93,15-9.87,22.69-2.36,6.17-4,12.63-5.86,19-6.64,22.48-14.06,44.78-19.64,67.52s-9.3,46-13.85,69a5.38,5.38,0,0,0-.16,1.87Q463,1359,462,1364.07a91.48,91.48,0,0,0-2,9.74c-2.11,21.09-4.21,42.18-6.06,63.29-1.51,17.16-3.11,34.34-3.85,51.55-1.07,24.9-2.05,49.83-1.69,74.73.14,9.25,0,18.44-.22,27.67-.38,14.31-.26,28.63-.35,43h-28c1.54-9.54,3-19.08,4.62-28.61,3-18.05.67-36.13,1.29-53.88l-5.94-2.18c0-5.85,0-11.15,0-16.44,0-2.66-.81-4.51-3.72-4.84-.7-1.07-1.91-2.1-2-3.22-.87-11.18-1.85-22.36-2.21-33.57-.87-26.44-1.33-52.9-2.15-79.34-.26-8.22-1.93-16.46-1.57-24.63.65-14.45,2.35-28.86,3.62-43.29Zm19-18.3c1.55-2,2.43-2.61,2.69-3.46,4.85-15.49,10.13-30.88,14.31-46.56,5.93-22.26,14.06-43.5,25.69-63.42,1.61-2.75,4.42-5.58,3.17-9.91C461.7,1211,429.78,1296.19,432.8,1317.66Z" />
        <path class="cls-3"
            d="M2817.12,1634c-.59-12.58-1.5-25.17-1.65-37.76-.1-8.59.91-17.2,1.34-25.81a86.79,86.79,0,0,0,.05-9c-.43-7.93-1.07-15.85-1.52-23.78-1.37-24.15-2.92-48.3-4-72.47-1.67-38.45-5.42-76.61-13.55-114.29-3.91-18.1-6.66-36.47-10.89-54.49-3.79-16.1-8.77-31.91-13.44-47.79-3.36-11.42-7.37-22.66-10.54-34.14-3.5-12.66-10.56-23.5-16.66-34.85a97.06,97.06,0,0,1-7-16.1,59.54,59.54,0,0,1,24.47,14.5q14.47,14.39,28.11,29.61c2.5,2.8,3.56,6.88,5.29,10.37-2.19-1.69-4.41-3.34-6.56-5.08-1.54-1.24-3-2.6-4.47-3.9a9.58,9.58,0,0,0,1.27,6.15c3.86,7.33,8.12,14.46,11.57,22,11.63,25.39,18,52.55,26.26,79.09,1.59,5.12,3,10.43,7.3,14.46.43-3.69.64-7.36-.42-10.61-9.53-29.25-15.42-59.76-30.34-87.17-2.45-4.5-3.15-10-4.66-15l6.87,7.73,7.54,8.45c1.57,2,3.85,3.88,4.59,6.21,5.8,18.26,12.11,36.43,16.71,55,7.17,28.88,8.8,58.67,12,88.14,2.17,20,1.66,40.34,2.35,60.53q1,19,2,38c.66,17.55,1.44,35.11,1.88,52.67.08,3.1-1.23,6.23-1.89,9.35-3.69.14-4,2.67-4,5.53,0,4.92,0,9.84,0,15-5.67-.63-6,2.35-5.91,6.14.7,21.12,1.28,42.24,1.9,63.36Z" />
        <path class="cls-4"
            d="M80,1634c2.72-6.35,5.38-12.71,8.17-19,17.5-39.73,35.86-79.11,52.32-119.27,17.47-42.61,33.2-85.94,49.57-129q21.39-56.25,42.48-112.61c7.64-20.48,14.94-41.09,22.14-61.72,1.26-3.6,2.29-7.79,1.73-11.44-3.88-25.15-2.43-50.3-.71-75.48,2.24-32.76,3.91-65.56,6.6-98.28C266,962.55,270.37,918,282,874.54a331.28,331.28,0,0,1,39.43-90.86,966.83,966.83,0,0,0,50.21-90.3c14.44-29.72,28.44-59.93,34.91-92.85,4.57-23.27,17.63-40,38.95-51,8.68-4.48,15.89-11.8,23.76-17.83l2.72,2.41c-3.31,3.24-6.3,6.9-10,9.63-8.53,6.28-17.48,12-26.1,18.16a48.19,48.19,0,0,0-18.22,24.28c-6.12,18.56-11.78,37.26-17.63,55.91-8.28,19.87-15.47,40.29-25.1,59.49q-23.19,46.27-49.17,91.13c-11.83,20.44-25,40.11-30.77,63.32-5.55,22.18-11.13,44.39-15.51,66.82-6.37,32.63-8.05,65.82-9.78,99-.13,2.66-.11,5.32-.32,8q-1.71,20.84-3.5,41.65c-1.15,13.5-2.43,27-3.44,40.5-.34,4.68-.05,9.41-.05,16.44l8.12-16.08,3.35-4.33,2.83.19c-1.81,4.6-3.05,9.54-5.53,13.75-9.62,16.31-10.62,34-8.67,52.08,2.31,21.4,6.53,42.61,5.59,64.29-1.35-1.76-3.52-3.36-3.9-5.3-1.12-5.84-1.47-11.83-2.26-17.74-.6-4.48-1.41-8.93-2.12-13.39l-1.47.24Q250,1227,241.67,1252l-1.71,8-2.08,5.94c-3.72,7.59-7.77,15-11,22.83-1.72,4.12-2,8.82-3,13.25-7.84,10-9,22.36-12.2,34l-13.74,36q-2.9,7-5.78,14-4,11-8.06,21.92-3.09,7.95-6.17,15.89c-.67,2-1.35,4.07-2,6.11-7.18,11.68-11,24.63-14.18,37.8l-3.58,6q-2.13,7.11-4.27,14.22-2.09,4-4.19,8.09c-4.91,10.7-10,21.33-14.65,32.15-2.16,5.06-3.43,10.51-5.1,15.78l-7.6,14.12-6.45,17.9c-6.52,9.13-11.6,18.93-14,30l-7.93,13.94L88,1634Z" />
        <path class="cls-1"
            d="M3039.05,1634H2875.11c-.13-11.94-.17-23.81,2.74-35.57,2.86-11.52,4.63-23.3,7.41-34.84,4.88-20.23,10.06-40.4,15.39-60.52.69-2.6,3-4.76,4.6-7.13l11.92,32c.61,2.55.66,5.42,1.91,7.6,9,15.57,17.82,31.55,31.89,43,21.62,17.58,43.93,34.35,69.87,45.47C3027.17,1626.76,3033,1630.65,3039.05,1634Z" />
        <path class="cls-5"
            d="M2875.75,670.25a984.71,984.71,0,0,0,57.2,110.2c12.29,20.43,24.76,41,34.28,62.78,13.18,30.13,20.72,62.23,25.83,94.77,5.67,36.13,8.82,72.49,10.63,109,1.41,28.44,5.53,56.76,6.73,85.2.83,19.83,2.42,39.91-1.52,59.7-1.13,5.68.08,10.93,1.63,16.43,9.76,34.58,24.57,67.25,37.77,100.53,5.74,14.47,10.52,29.33,16,43.92,13.83,37,28.22,73.76,41.59,110.91,16.09,44.68,35.79,87.81,54.75,131.27,4.76,10.93,10,21.64,14.86,32.52.89,2,1.05,4.32,1.54,6.49h-8l-10.26-24.3q-9.09-20.79-18.19-41.59l-7.48-14.33c-.13-1.3.06-2.74-.43-3.89-4.86-11.41-9.72-22.82-14.86-34.1-1-2.23-3.21-3.93-4.86-5.87l-2-9.82q-5.31-11.74-10.61-23.48l.11-.14-2-6.6c-.92-2.81-1.75-5.66-2.79-8.43-4.12-11-8.3-22-12.46-33q-3.15-7.25-6.31-14.49l-8-23.89-5.84-14.19c-3.43-10-6.76-20-10.42-29.94-.6-1.63-2.63-2.75-4-4.1.11-2.29.83-4.76.22-6.84-4-13.55-7.86-27.21-15.64-39.28-1.45-4.41-2.67-8.91-4.41-13.2-3.08-7.58-6.48-15-9.75-22.53l-2-4c-.19-2.84-.38-5.69-.56-8.53q-5-16-10.07-32l-1.46.09q-2.36,19.13-4.7,38.26c-1.06-1.07-3-2.14-3-3.21,0-8.63,0-17.29.66-25.89,1.47-18.15,3.57-36.25,5-54.4.75-9.12-1.7-17.7-5.72-26-3.18-6.54-5.73-13.4-8.56-20.12l2.27-2.17,11.49,19.86c1.69-10.54-.93-18.93-2.38-27.4-.46-13.22-.5-26.46-1.47-39.64-2.24-30.74-4.62-61.49-7.54-92.18-1.82-19.1-3.82-38.28-7.43-57.1a504.5,504.5,0,0,0-14.17-54.78,241.21,241.21,0,0,0-15.69-38.68c-8.51-16.5-18.73-32.11-28-48.22-17.53-30.48-36-60.51-47.08-94.22-1.55-4.69-3.94-9.11-6-13.64C2871.27,672.82,2872.58,671.06,2875.75,670.25Z" />
        <path class="cls-6"
            d="M2905.25,1495.94c-1.57,2.37-3.91,4.53-4.6,7.13-5.33,20.12-10.51,40.29-15.39,60.52-2.78,11.54-4.55,23.32-7.41,34.84-2.91,11.76-2.87,23.63-2.74,35.57h-26q0-45,0-90c.66-3.12,2-6.25,1.89-9.35-.44-17.56-1.22-35.12-1.88-52.67,4.25-.39,4.89-3.8,5.89-7,.88-2.81,1.26-6.07,3-8.27,10.47-13.55,15.1-30,22.75-45,8.88-17.34,16.56-35.29,25-52.85,1-2,3.61-3.27,5.48-4.88-.38,1.94-.59,3.93-1.14,5.82-6.12,21.1-9.6,42.59-8.89,64.6.44,13.87,1.43,27.73,2.17,41.59Q2904.33,1486,2905.25,1495.94Z" />
        <path class="cls-7"
            d="M3158.75,1609.7,3169,1634h-98c-.49-5.12-5.2-5-8.26-5.64-10.77-2.27-20.3-7.2-29.76-12.45-.16-6.29-1.1-12.89,6.5-16.06,10.86-4.53,22.19-7.37,33.82-5.21,20.38,3.79,40.54,8.73,60.9,12.65C3142.27,1608.83,3150.57,1608.94,3158.75,1609.7Z" />
        <path class="cls-4"
            d="M447.86,1634c.09-14.32,0-28.64.35-43,.24-9.23.36-18.42.22-27.67-.36-24.9.62-49.83,1.69-74.73.74-17.21,2.34-34.39,3.85-51.55,1.85-21.11,3.95-42.2,6.06-63.29a94,94,0,0,1,2-9.74l7.09,3.94c-.35,2.67-.71,5.34-1.06,8-1.94.86-5.4,1.49-5.57,2.62-.71,4.71-2.53,10.12,3.3,13.34-1.76,23.4-4,46.76-5.19,70.19-1.81,35.76-3.14,71.55-4.21,107.34-.64,21.48-.38,43-.53,64.49Z" />
        <path class="cls-8"
            d="M3033,1615.91c9.46,5.25,19,10.18,29.76,12.45,3.06.65,7.77.52,8.26,5.64h-32c-6.05-3.35-11.88-7.24-18.21-10-25.94-11.12-48.25-27.89-69.87-45.47-14.07-11.45-22.94-27.43-31.89-43-1.25-2.18-1.3-5-1.91-7.6,2.1,2.25,4.48,4.31,6.25,6.8,6.67,9.35,11.8,20.5,25.75,20.81-2.25,5.82,2.66,7.67,5.8,10.5a291.28,291.28,0,0,0,52.4,37.11C3015.68,1607.87,3024.45,1611.7,3033,1615.91Z" />
        <path class="cls-9"
            d="M265.82,1605.77c-1.29,8.13-5.23,14.65-11.42,20.1-2.56,2.25-4.34,5.39-6.48,8.13H160c0-.63,0-1.27,0-1.9a206.6,206.6,0,0,0,73-12.29C244.17,1615.81,254.89,1610.49,265.82,1605.77Z" />
        <path class="cls-10"
            d="M416.14,1528.05c2.91.33,3.75,2.18,3.72,4.84-.06,5.29,0,10.59,0,16.44l5.94,2.18c-.62,17.75,1.7,35.83-1.29,53.88-1.58,9.53-3.08,19.07-4.62,28.61h-4Z" />
        <path class="cls-10"
            d="M2849.12,1544q0,45,0,90h-8c-.62-21.12-1.2-42.24-1.9-63.36-.13-3.79.24-6.77,5.91-6.14,0-5.13,0-10,0-15C2845.1,1546.67,2845.43,1544.14,2849.12,1544Z" />
        <path class="cls-3"
            d="M160,1632.1c0,.63,0,1.27,0,1.9H88l6-14.11c3.87.75,7.84,1.16,11.59,2.3A226.67,226.67,0,0,0,160,1632.1Z" />
        <path class="cls-11"
            d="M2699.41,164.05c-.62,20.88-1.63,41.76-1.78,62.65-.46,64.87-.63,129.75-.85,194.62-.08,22.63-.09,45.27.15,67.9.07,6-.88,10.65-6.6,14.19-4.12,2.55-7.14,6.86-10.65,10.38-.83-5.24-2.3-10.46-2.39-15.71-1.08-62.24.57-124.48-1.7-186.75-2-53.26-.41-106.65-.5-160a56.52,56.52,0,0,0-1.18-11.83c-3.38-15.48-7.34-30.85-10.48-46.38-2.84-14-9.31-24.87-21.22-33.38-15.8-11.29-33.06-14.8-51.82-13.57-7.59.5-15.17,1.69-22.75,1.7-102.63.12-205.26-.31-307.88.23s-205.43-.5-308.16,1.36c-117.25,2.12-234.57.06-351.85.65s-234.41-1-351.64,1.3C1167,53,1085.68,53.89,1004.46,50.29c-31.84-1.41-63.82.75-95.72,1.26-81.28,1.3-162.59.43-243.89.52-10.32,0-20.59,1-29.81,6.29-15,8.66-27.32,20.18-35.12,35.71-8.48,16.9-17.28,33.72-22,52.25-1.13,4.45-2.24,9.37-8.36,9.75-.35-4.64-.55-9.3-1.07-13.93a95.15,95.15,0,0,1,5-42.27c2.92-8.42,6.19-17.05,11.13-24.35A94.11,94.11,0,0,1,621.37,44c8.79-4.33,18.69-8.72,28.18-9,35.79-.87,71.61.12,107.42.1,26.54,0,53.09-.7,79.63-.73,19.92,0,39.84.8,59.76.74,37.46-.1,74.92-.72,112.38-.84Q1115.08,34,1221.4,34q131.71-.26,263.42-.57c28.19-.06,56.37.15,84.56,0,18.87-.11,37.75-.85,56.62-1,31.17-.18,62.34,0,93.52-.11,60.55-.13,121.11-.39,181.66-.47,85.53-.12,171,0,256.58-.22,35.76-.09,71.51-.89,107.27-1.12,29.55-.19,59.1,0,88.65,0q70.89-.12,141.79-.38c36.94-.19,73.87-.68,110.8-1,5.64,0,11.59-1,16.86.41,36.53,9.91,62.77,31.19,72.69,69.07,2.24,8.56,2.34,17.67,3.6,26.51.35,2.44-1.27,6.58,4,5.81l0,4.11-2.77,2.39,2.74,1.58a10.67,10.67,0,0,1,.72,1.58c0,.1-.48.36-.74.55-3.58-2-3.81.35-3.82,3a2.18,2.18,0,0,0,0,1.82c0,2,0,4,0,6.07,0,2.67,0,5.34-.08,8Z" />
        <path class="cls-3"
            d="M557,435l1.71-3.07,5.49-1.75c.46,3.51,1.32,7,1.33,10.54.16,31.08.17,62.16.22,93.25q.15,3,.29,6c-.12,2.94-.69,6-.27,8.81,1.51,10.53-2.11,19.2-8.89,26.93-1.07,1.21-2.47,2.6-2.63,4-.17,1.61.89,3.35,1.41,5a1.22,1.22,0,0,1-.86,1.2c-1.69-2.7-3.76-2.38-5.62-.4-3.36,3.57-6.29,7.58-9.85,10.94-4.63,4.38-6.56,11.49-13.54,13.49.67-4.15,2.86-8.22.35-12.5-2.17-3.71,3.89-8.6-1.88-12.86-1.57,10.38-3,19.86-4.45,29.33q-8.94,33-17.89,66c-.73,3.51-1.45,7-2.21,10.52q-4,18.6-8.1,37.19l-7.34-4c-3.55-2.68-5.2-8.63-11.72-7.24.33,6.31,5.74,7.16,9,10,5.84,5.45,10.54,12.83,20.16,11.81l3,3.83H483.89c-.08.77-.16,1.55-.23,2.32l12,1.8c.8.43,1.57.89,2.39,1.28.08,0,.39-.46.6-.7l-2.62-1,20.13-3-12-6.95c3-3.54,6.21-6.94,9-10.65a629,629,0,0,0,46.43-70.83c1.53-2.75,4-5.68,1.08-9.1.15-.71.31-1.41.46-2.12,5,1.52,4.74,5.57,4.77,9.58.11,13.76.29,27.51.44,41.27l0,4q-.17,22.62-.32,45.23c0,.66.06,1.31.1,2,.44,6.56,1,13.12,1.29,19.68.59,12.15,1,24.31,1.55,36.47-8.52,6.59-17.23,13-25.54,19.84-9,7.44-18.8,12-30.7,10.76-4-.4-8-1-8.9-6l3.85-1.28c-5.12-4.84-8.45-10.38-15.28-11.33-.28-1.28-.2-2.82-.91-3.79-7.71-10.75-16.49-20.93-17.39-35.06,0-.38-.87-.7-1.81-1.4-.21,2.55-.4,4.76-.58,7l-3.61,4c.45-8.2,1-16.41,1.27-24.62,0-1.12-1-2.28-1.49-3.43.61-7.15-1.17-13.75-4-20.28s-6-13.44-7.64-20.48c-4.55-19.39-7.64-39.06-6.21-59.06A81.61,81.61,0,0,1,454,636c6.75-19.89,18.82-36.47,33.85-50.91,10.37-10,19.85-20.53,26.25-33.56,3.94-8,7.41-16.34,12.08-23.92,13.55-22,22.63-45.77,30.11-70.31,1.57-5.14,3-10.17-.37-15.14.06-.65.13-1.29.23-1.93l-.72-3c.51-.65,1-1.31,1.52-1.93a7.28,7.28,0,0,0,.69,1.49c.13.18.59.1.91.13Z" />
        <path class="cls-12"
            d="M2875.75,670.25c-3.17.81-4.48,2.57-3,5.82,2,4.53,4.43,8.95,6,13.64,11.12,33.71,29.55,63.74,47.08,94.22,9.27,16.11,19.49,31.72,28,48.22a241.21,241.21,0,0,1,15.69,38.68,504.5,504.5,0,0,1,14.17,54.78c3.61,18.82,5.61,38,7.43,57.1,2.92,30.69,5.3,61.44,7.54,92.18,1,13.18,1,26.42,1.47,39.63-4.32-.23-5-3.71-6.16-6.81-4.82-13.08-9.74-26.12-14.47-39.24q-26.2-72.57-52.32-145.2c-8.26-22.89-19.7-44.36-31.68-65.37-14.52-25.48-25.26-51.78-26.34-81.41-.69-18.57-1.11-37.16-2.12-55.71-.54-9.88-2.12-19.7-3.15-29.55-1-9.2-2.08-18.41-2.58-27.64-.15-2.78,1.49-5.66,2.32-8.5,1.25,3,2.57,5.93,3.76,8.93,1.39,3.52,4,5,7.65,4.68A1.15,1.15,0,0,1,2875.75,670.25Z" />
        <path class="cls-13"
            d="M565.76,534c0-31.09-.06-62.17-.22-93.25,0-3.52-.87-7-1.34-10.54l-3.75-.59c4.75-7.7,5.06-16.15,4.91-24.93-.46-27.45-.52-54.91-.66-82.37q-.35-65.46-.57-130.91c-.09-21.26-.11-42.53-.29-63.8-.15-18.38,5-35.64,13.42-51.47,7.93-14.9,21.24-25.31,35.63-34.07,16.72-10.18,35-13.29,54.32-13,18.11.26,36.23-.67,54.35-.73,42.83-.13,85.66,0,128.49-.06q178.68-.3,357.35-.66c43.27-.07,86.53.07,129.79,0,21.82-.05,43.63-.41,65.44-.54q45.55-.29,91.11-.45Q1670,26.26,1846.17,26q176.7-.27,353.41-.43c35.88,0,71.76.09,107.64,0,19.82-.07,39.65-.66,59.47-.68,18.68,0,37.35.58,56,.59s37.51-.43,56.27-.57c18.48-.14,37-.07,55.44-.23,21.62-.19,43.26.07,64.85-.95,28.73-1.36,53.41,7.08,74.89,26.38,18.16,16.31,25.89,37.26,29.16,60.41.94,6.68.09,13.61.06,20.42-5.24.77-3.62-3.37-4-5.81-1.26-8.84-1.36-17.95-3.6-26.51-9.92-37.88-36.16-59.16-72.69-69.07-5.27-1.43-11.22-.45-16.86-.41-36.93.32-73.86.81-110.8,1q-70.89.38-141.79.38c-29.55.05-59.1-.17-88.65,0-35.76.23-71.51,1-107.27,1.12-85.53.22-171.05.1-256.58.22-60.55.08-121.11.34-181.66.47-31.18.07-62.35-.07-93.52.11-18.87.1-37.75.84-56.62,1-28.19.16-56.37-.05-84.56,0q-131.7.24-263.42.57-106.32.21-212.66.39c-37.46.12-74.92.74-112.38.84-19.92.06-39.84-.76-59.76-.74-26.54,0-53.09.72-79.63.73-35.81,0-71.63-1-107.42-.1-9.49.23-19.39,4.62-28.18,9a94.11,94.11,0,0,0-36.78,31.49c-4.94,7.3-8.21,15.93-11.13,24.35a95.15,95.15,0,0,0-5,42.27c.52,4.63.72,9.29,1.07,13.93-.07,4-.24,8-.19,12,.46,38.53,1.12,77,1.41,115.57q.66,87.78.89,175.54c.08,25-.23,49.91-.36,74.87Z" />
        <path class="cls-14"
            d="M2875,668.7c-3.68.28-6.26-1.16-7.65-4.68-1.19-3-2.51-5.95-3.77-8.92q-5.21-15.55-10.4-31.14c-3-24.15-13.87-43.14-35.81-55.08a63,63,0,0,1-13.77-9.64c-14.94-14.49-29.76-29.12-44.12-44.19-13-13.66-25.37-28-38-42-1-1.62-1.9-3.32-3.05-4.83-4.45-5.89-9-11.72-13.49-17.56l.24-4.75c19.87,23,39.25,46.51,59.78,68.93,13.82,15.1,29.19,28.8,44.05,42.93a39.55,39.55,0,0,0,9.88,6.59c21,10.23,33.66,26.59,39.34,49.37C2862.86,632.31,2869.35,650.4,2875,668.7Z" />
        <path class="cls-15"
            d="M556.18,440.18c-.1.64-.17,1.28-.23,1.93-10.71,12.53-21,25.41-32.2,37.53-17,18.44-34.49,36.35-51.78,54.48l-2.72-2.41c7.46-7.44,15.13-14.69,22.33-22.37C499,501.39,506,493,513.24,484.83q20-22.54,40-45.06Z" />
        <path class="cls-13" d="M2699.41,160c0-2.67.05-5.34.08-8l3.6-2-.07,9.92Z" />
        <path class="cls-16"
            d="M2703.09,150l-3.6,2c0-2,0-4,0-6.07.21-.18.64-.42.6-.53a7.74,7.74,0,0,0-.64-1.29c0-2.61.24-5,3.82-3C2703.23,144.08,2703.16,147.05,2703.09,150Z" />
        <path class="cls-16" d="M2699.41,160l3.61,0-.11,4.62-3.5-.5Z" />
        <path class="cls-14" d="M556.18,440.18l-3-.41,2.24-2.56Z" />
        <path class="cls-14" d="M560.45,429.62l3.75.59L558.72,432Z" />
        <path class="cls-14" d="M557,435l1.57,1.87c-.32,0-.78.05-.91-.13a7.28,7.28,0,0,1-.69-1.49S557,435,557,435Z" />
        <path class="cls-13" d="M2703.33,139l-2.74-1.58,2.77-2.39Z" />
        <path class="cls-17"
            d="M2388.69,1495.41c6.63.28,13.25.74,19.88.81,28.61.31,57.23.68,85.85.68,22.62,0,45.34.72,67.81-1.19a100.62,100.62,0,0,0,50.66-19.09c12.12-8.76,18.53-21.52,23.63-35,5-13.22,6.69-26.83,6.5-41-.49-36.6.08-73.2,0-109.8-.13-46.16-.55-92.32-.78-138.48-.11-21.24-.07-42.47-.05-63.71,0-1.86.39-3.73.74-6.88,7.17,7.52,13.42,14.16,19.77,20.72,9.67,10,17.95,21.47,30.36,28.52,3.43,1.95,3.84,4.93,3.84,8.48q.23,105.36.63,210.71c.08,17.26.75,34.52,1.39,51.77.09,2.6-2,7.66,4.37,6.23l.16,7.65c-2.31-1.14-4.07-.45-4,2.1,0,2.84.84,5.67,1.31,8.51a1,1,0,0,0,0,1.28q-.72,6.82-1.42,13.66l0,3.44c.45,10.7.85,21.38-3.73,31.48-5.53.41-7.68,5.44-9.92,8.86-14.16,21.68-36.2,30.11-59.38,37.18a85.22,85.22,0,0,1-25.42,3.87c-104.6-.13-209.21-.52-313.81.07s-209-1.4-313.59,1.37c-72.57,1.93-145.23.39-217.85.36a89.21,89.21,0,0,1-8.94-.57c-10.19-1-20.37-3.07-30.56-3.14-186.48-1.39-373,.7-559.44-1.71-161.87-2.09-323.79-.46-485.69-.56a92,92,0,0,1-14.76-1.56c-6.47-1.05-12.87-3.33-19.32-3.41a12.09,12.09,0,0,1-7.81-2.67,96.14,96.14,0,0,1-27.47-29.75c-8.82-15-16.88-30.33-15.65-48.57.49-7.27,1.58-14.5,1.8-21.77,1.09-36.57-.28-73.14,1.66-109.76,2.55-48.16-1.27-96.5,2.27-144.72.85-11.6-.24-23.33.26-35,.32-7.37-.87-13.78-6.32-19,6.67-5.33,13.28-10.74,20-16s11-13.5,20.77-18v44.4c-.23,3.32-.63,6.63-.65,9.95-.35,53.11-.76,106.23-.92,159.34-.1,32.86.52,65.72.22,98.58-.17,18.69.26,37,7.4,54.77,8.29,20.62,22,35,42.87,43.09s42.77,7.1,64.47,8.08c1.32.12,2.65.34,4,.34,70.11.51,140.23,1.19,210.34,1.45q141.67.52,283.36.54c56.91.08,113.83,0,170.74.18,29.84.1,59.67.74,89.5.93,25.93.17,51.86,0,77.79,0l10.13,0c6.65.13,13.3.38,20,.36q51.93-.12,103.85-.36l6.15,0h57.84c3.32.17,6.64.47,10,.5,44.51.43,89,1,133.52,1.18q142.79.57,285.57.77c51,.09,101.91-.06,152.87-.1l17.91-.19,13.43-.86Z" />
        <path class="cls-2"
            d="M626.37,1116.14v-44.4c-9.73,4.54-14,12.8-20.77,18s-13.37,10.63-20,16c-2.34,1.85-4.47,4.13-7.07,5.46-5.91,3-7.51,7.64-7.2,13.93.44,9,.29,18,.2,27-.3,31.57-.87,63.14-1,94.71-.1,26.89.51,53.78.4,80.68-.09,22.94-.76,45.88-1.15,68.82-.23,13,.18,26-.76,38.93-2.29,31.56,5.55,59.42,29.83,80.71,17.42,15.28,36.6,26.67,61.65,24.84,19.13-1.41,38.44-.3,57.66-.3,2.67,0,5.33.06,8,.12,14.2.33,28.41,1,42.61.93,13.22,0,26.44-1,39.66-1.14,15.23-.19,30.47,0,45.71.07,35.27,0,70.54,0,105.8.1,16.28.07,32.57.79,48.85.78,19.54,0,39.08-.7,58.62-.67,14.52,0,29,.89,43.54,1,27.57.31,55.13.37,82.7.53,0,1.89,0,3.77,0,5.65-30,.16-59.92.42-89.88.46q-72.76.11-145.54,0-102.24-.24-204.49-.74c-32.28-.17-64.56-1.13-96.83-1-18.47.08-34.45-6.38-49.24-16.29a115.53,115.53,0,0,1-20.31-17.41c-18.43-20-23.6-44.72-23.59-70.89q0-87.84.46-175.69c.24-45.07.79-90.13,1.2-135.2,0-2.94,0-5.88,0-10.1-14.18,6.72-25.85,14.51-32.77,28-5.89,11.54-11.9,23-17.69,34.62a65.77,65.77,0,0,0-4.88,12q-13.95,51.3-27.53,102.69c-3.17,12-6.07,24.2-8.44,36.42-2.12,11-3.35,22.17-5,33.27l-7.09-3.94,1.89-10.13c.25-.16.73-.37.7-.47a7.49,7.49,0,0,0-.54-1.4c4.55-23,8.27-46.21,13.85-69s13-45,19.64-67.52c1.87-6.35,3.5-12.81,5.86-19,2.94-7.7,6.37-15.22,9.87-22.69,4.06-8.67,8.43-17.2,12.67-25.8l.76-1-1,.78a78.73,78.73,0,0,0-29,20c-2.28,2.43-4.71,4.7-7,7.11-9.32,9.84-19.81,18.63-25.65,31.44-1.68,3.69-5.41,6.45-8.2,9.64,2.8-6.25,5.52-12.54,8.43-18.74,8-17.18,20.71-30.71,35.49-42,13.4-10.23,27.73-19.32,42-28.32,18.51-11.65,37.76-22.3,53.69-37.49,14.59-13.91,29.07-28,42.39-43.14a95.47,95.47,0,0,0,17.07-27.81c5.51-14.12,8.92-29.11,12.66-43.87,7-27.5,13.58-55.1,20.33-82.66h5.72c-5.83,26.15-12.06,52.21-17.37,78.46-3.6,17.79-8.17,35.39-15.48,51.78-5.45,12.22-14.15,23.18-22.49,33.84-4,5.09-6.17,9.73-6.14,16.06.07,14.62-.3,29.25-.5,43.87-.24.19-.73.47-.69.57a8.62,8.62,0,0,0,.74,1.41v2C626.86,1122.91,628.4,1117.07,626.37,1116.14Z" />
        <path class="cls-13"
            d="M1193.63,1547.9c0-1.88,0-3.76,0-5.65,2-.09,4-.26,6-.26q150.87.08,301.74.19,130.76.12,261.5.39c21.46.06,42.91.93,64.37,1.14,25.64.25,51.28.22,76.92.24,105.24.09,210.47,0,315.71.29,78.81.24,157.61,1.09,236.42,1.56q75.93.45,151.86.53c6.28,0,12.76.17,18.8-1.25,19.68-4.65,35.51-15.84,49.4-30.3,10.5-10.94,16.43-23.9,19.19-38.57,4.58-10.1,4.18-20.78,3.73-31.48,3.37-2,5.14-.57,5.11,2.86-.13,14-1.7,27.66-6.12,41-10.66,32.14-34.43,50.59-65.1,60.63-10.13,3.32-21.73,2.89-32.66,2.91-33.54.07-67.09-.44-100.63-.79-25.31-.26-50.61-.86-75.91-.86-36,0-71.94.57-107.9.59-31.56,0-63.12-.56-94.68-.62q-130.76-.27-261.52-.31-202.54-.23-405.1-.47c-33.92,0-67.84-.29-101.76-.51-33.23-.23-66.47-.68-99.7-.77-50.9-.14-101.8-.05-152.69-.09C1198.25,1548.32,1195.94,1548.05,1193.63,1547.9Z" />
        <path class="cls-16"
            d="M465.79,1392c-5.83-3.22-4-8.63-3.3-13.34.17-1.13,3.63-1.76,5.57-2.62Q466.92,1384,465.79,1392Z" />
        <path class="cls-13"
            d="M2699.26,1441.29q.7-6.82,1.42-13.66a14.47,14.47,0,0,1,2.3.16,116.36,116.36,0,0,1,.56,12.37C2703.53,1440.57,2700.75,1440.91,2699.26,1441.29Z" />
        <path class="cls-13"
            d="M2700.69,1426.35c-.47-2.84-1.27-5.67-1.31-8.51,0-2.55,1.73-3.24,4-2.1-.05,3.12,0,6.25-.25,9.36C2703.12,1425.58,2701.55,1425.93,2700.69,1426.35Z" />
        <path class="cls-6"
            d="M472,534.12c17.29-18.13,34.82-36,51.78-54.48,11.16-12.12,21.49-25,32.2-37.53,3.34,5,1.94,10,.37,15.14-7.48,24.54-16.56,48.34-30.11,70.31-4.67,7.58-8.14,15.9-12.08,23.92-6.4,13-15.88,23.6-26.25,33.56-15,14.44-27.1,31-33.85,50.91a81.61,81.61,0,0,0-4,20.28c-1.43,20,1.66,39.67,6.21,59.06,1.65,7,4.73,13.8,7.64,20.48s4.63,13.13,4,20.28c-.63,1.11-1.66,2.17-1.81,3.34-2.79,21.25-5.54,42.49-8.11,63.76-.44,3.66-.06,7.41-.06,11.12l1.62.18q2.13-5.24,4.24-10.46c.7,2.1,1.83,4.16,2,6.3.9,9.54,1,19.18,2.37,28.66,2.19,15.76,4,31.49,3.75,47.44-.22,16.3,0,32.62-.11,48.92a67.89,67.89,0,0,1-1.4,11.77c-2,10.39-4.33,20.7-6.13,31.12-.7,4-1.78,8.66,4.41,12,1.82-2.65,3.94-5,5.25-7.75,4-8.39,7.11-17.23,11.57-25.35,8.76-16,18-31.71,27.43-47.32,5-8.22,10.6-16,16.11-23.91,10.06-14.37,20.48-28.49,30.31-43,6.5-9.6,12.27-19.69,18.32-29.59,3.1-5.08,7.2-9.86,9-15.38,6.89-21.73,19.14-40.79,29.3-60.89,2-3.87,3-7.27,0-10.93,8.33-10.57,16.71-21.1,25-31.73,2-2.56,3.53-5.46,5.27-8.21l5.61-4.05,14.83-15.42c2.07-.92,4.66-1.34,6.14-2.85,10-10.18,20.08-20.31,29.51-31,7-7.91,13-16.66,19.39-25-.37,6.23,3.66,9.5,8.32,12.33,3.65,2.22,7.44,4.23,11,6.65,6,4.12,10.25,9.28,8.84,17.27-.66,2-1.33,4-2,6.07l0,0q-2.13,1.93-4.25,3.88l-2,2c-.19.53-.39,1-.59,1.58.31-.41.62-.83.94-1.24l3.47-2.25,2.17-.25c-1,4.09-1.05,8.83-3.23,12.15-9.87,14.95-20.26,29.55-30.65,44.14-3.64,5.12-7.93,9.78-11.7,14.82-3.36,4.5-6.63,9.11-9.56,13.91-5,8.18-9.37,16.74-14.52,24.81-11.08,17.34-22.13,34.73-33.89,51.62a261.28,261.28,0,0,1-23.12,28.53c-24.4,26.23-48.83,52.4-70.83,80.77-14,18.06-29.11,35.26-43,53.42-21.79,28.52-42.3,58-57.41,90.72-12.38,26.82-23.67,54.18-30.49,83-2.8,11.84-3.61,24.15-5.37,36.24-1.29,8.83-2.69,17.64-4,26.47-1.77,12.09-2.79,24.34-5.39,36.25-4.18,19.08-10.69,37.72-13.81,56.94-3.89,23.88-13.41,45.78-20.61,68.5-.46,1.46-1.7,2.67-2.58,4-1.25-4.42-2.63-8.81-3.74-13.27-10.65-42.81-32.47-78.31-68.45-104.49-4.23-3.08-8.9-5.55-13.36-8.31l-3.85-2.07-10.23-7.78a37.84,37.84,0,0,0,.23-25.83c.94-21.68-3.28-42.89-5.59-64.29-1.95-18-.95-35.77,8.67-52.08,2.48-4.21,3.72-9.15,5.52-13.75,1.35-1.34,3.17-2.45,4-4.06,12.32-24.47,24.64-48.94,36.62-73.59,2.85-5.86,4.42-12.34,6.58-18.54a2.72,2.72,0,0,0,.79-.26c.13-.09.12-.39.17-.59l-.89.92c-3.89-3.38.29-5.85,1.21-8.45,2.79-7.86,9.08-14.36,9-23.35.76-.63,1.86-1.1,2.24-1.91q12.63-27,25.06-54.14c.35-.77-.25-2-.63-4.39-9.32,19.67-18,37.86-26.54,56.08-.54,1.15-.44,2.61-.63,3.92a21.13,21.13,0,0,0-2.29,3.18c-16.24,33.91-32.54,67.79-48.55,101.81-3.52,7.48-6,15.44-9,23.18l-3.34,4.32c-3.31-2-2.81-4.94-1.73-7.9,1.92-5.31,3.55-10.76,5.94-15.85,5.24-11.1,11.16-21.88,16.31-33,13.51-29.26,26.76-58.65,40.12-88,4.13-9.08,8.87-17.93,12.31-27.26,10.12-27.41,19.71-55,29.54-82.54,6.59-18.45,12.39-37.1,14.86-56.63s8.24-38.81,8.52-58.89c.16-11.51,2.27-23,3.5-34.49q1.8-16.76,3.61-33.5A80.74,80.74,0,0,0,400,642.1c5.85-18.65,11.51-37.35,17.63-55.91a48.19,48.19,0,0,1,18.22-24.28c8.62-6.17,17.57-11.88,26.1-18.16C465.67,541,468.66,537.36,472,534.12ZM578.26,870.47l1.88-2.13,5.9-6.15,4.07-6c3-.56,5.16-1.81,3.11-6.15l-3.57,5.7-4.28,5.9-5.79,6.17-2.07,1.93-1,1.19ZM363.94,914.05c3.87-2.44,5.47-6,5.85-11.93-4.64,3.84-6,7.51-6,11.85-.56.74-1.13,1.48-1.69,2.23l1.17.57C363.53,915.86,363.73,915,363.94,914.05ZM732.16,688.42c3.88-1.22,6.52-3.41,5.09-8.76-1.92,2.7-3.84,5.39-5.75,8.1-.17.59-.34,1.18-.5,1.77Zm-167.93,198c4.53-1.8,7.95-4.52,8.1-10-3.81,2.28-7.67,4.46-8.81,9.29l-.72,1.43Zm133.83-160c13.26-8.38,21.33-21.49,31-33.34-1.73-.31-3.07-.1-3.79.68q-13.74,15-27.32,30.08c-.39.44-.39,1.24-.57,1.88-3.7,1.2-6.6,3-5,8.48ZM526.14,946.34c1.18-.6,2.69-.91,3.47-1.84,7.71-9.11,15.22-18.39,22.94-27.51q14.48-17.09,29.16-34c12.38-14.33,24.89-28.55,37.14-43,2.91-3.44,5-7.57,7.48-11.4l2.54-2.46L627.69,825c-.74.91-1.47,1.82-2.21,2.72Q612,842.34,598.58,857c-5.82,6.36-11.74,12.64-17.33,19.2-14.2,16.64-28.58,33.14-42.16,50.28-4.82,6.09-12.1,10.64-13.73,19.09l-.43,1.84ZM418.59,601.16c-3.78,10.38-8.88,76.92-6.49,84.83,6.31-26,4.46-51.14,7.45-75.77C419.83,607.94,419.09,605.54,418.59,601.16ZM421.08,631c-2.41,25.29-4.61,48.29-6.87,71.92C420.34,693,425.46,644.5,421.08,631ZM601,844.43c-.17-.53-.21-1.31-.56-1.5s-1,.23-1.54.38c.22.67.45,1.33.68,2Z" />
        <path class="cls-18"
            d="M160,1632.1a226.67,226.67,0,0,1-54.45-9.91c-3.75-1.14-7.72-1.55-11.59-2.3l7.93-13.94c2.08,1.44,4,3.34,6.25,4.27,14.49,5.91,29.94,8.09,45.28,9.51,20.84,1.92,41.47-1.18,61.68-6.55,2.55-.68,4.67-3,7-4.55,12.62.08,23.19-5.91,33.79-11.64,1.72-.93,2.67-3.27,4-5,.71-5.9-1.06-10.88-4.41-15.87-7-10.4-16.37-17.86-28.07-21.14a257.39,257.39,0,0,0-42.74-8.65c-18.12-1.89-36.45-1.71-54.69-2.42,1.67-5.27,2.94-10.72,5.1-15.78,4.64-10.82,9.74-21.45,14.66-32.15,10.46,1.34,20.89,3.2,31.39,3.89,17.08,1.12,34.25.92,51.31,2.28,24,1.92,42.93,12.81,54.68,34.45,4.57,8.44,8.5,17.22,12.72,25.85q2.11,6.84,4.22,13.69c-7.85,6.5-15.58,13.14-23.58,19.45-4.65,3.66-9.73,6.78-14.61,10.14-10.93,4.72-21.65,10-32.84,14A206.6,206.6,0,0,1,160,1632.1Z" />
        <path class="cls-9"
            d="M687.89,892c-6.75,27.56-13.34,55.16-20.33,82.66-3.74,14.76-7.15,29.75-12.66,43.87a95.47,95.47,0,0,1-17.07,27.81c-13.32,15.09-27.8,29.23-42.39,43.14-15.93,15.19-35.18,25.84-53.69,37.49-14.28,9-28.61,18.09-42,28.32-14.78,11.27-27.45,24.8-35.49,42-2.91,6.2-5.63,12.49-8.43,18.74l.06-.06-2.5,2.12c-2.45,3.85-5.51,7.45-7.26,11.6-12.32,29.21-24.09,58.6-28.4,90.37-.56,4.09-2.55,8-3.88,12-.62-1.45-1.95-3-1.75-4.34,4.14-27.77,7.06-55.78,16.29-82.54.33-.94,1-1.87,1-2.8-.39-22.6,12.92-40,22.81-58.48,5.26-9.86,12.06-19,19.12-27.76,4.3-5.3,10.08-9.63,15.78-13.54q18.45-12.61,37.55-24.27c7.36-4.49,15.19-8.21,22.9-12.12,17.27-8.76,33.32-19.16,46.69-33.43,4-4.32,9-7.83,13.52-11.68,16.26-13.76,26.86-31.92,38.14-49.5,7.29-11.37,9-24.85,12.91-37.48,5.17-16.54,6.61-33.73,8.35-50.76,1-10.08-1.32-20.46-1.24-30.7a283.22,283.22,0,0,1,2.12-32.67c.63-5.13,3.36-10,5.18-15q9.35-25.66,18.72-51.33c3.7-10.13,11.92-16.62,19.2-23.86,4.17-4.16,8.14-8.55,12.55-12.45,3.11-2.75,6.78-4.87,10.21-7.27-3.35,6.83-6.79,13.61-10,20.48-14.06,29.82-21.06,62-30.37,93.33C690.8,873,689.72,882.6,687.89,892Z" />
        <path class="cls-19"
            d="M687.89,892c1.83-9.4,2.91-19,5.62-28.15,9.31-31.37,16.31-63.51,30.37-93.33,3.24-6.87,6.68-13.65,10-20.48a552.74,552.74,0,0,0,50.81-84.19,133.62,133.62,0,0,0,13.08-60.72c-.31-22.08-16.16-30.39-33.31-32.08-5.07-.5-11.34,1.32-14.61,6.82-9.46,15.92-18.82,31.9-28.22,47.86-6.44,8.38-12.44,17.13-19.4,25-9.43,10.71-19.51,20.84-29.51,31-1.48,1.51-4.07,1.93-6.15,2.85a9.89,9.89,0,0,1-.81-.64c0-1.29,0-2.58.05-3.86,12.3-12.44,26.48-23.11,35.68-38.45a89.78,89.78,0,0,1,7.1-10.8c13.73-16.78,25.19-35,35.26-54.17,2.33-4.43,5.62-6.87,9.87-9.15,9.86-5.28,19.39-2.65,28.83.45,11.46,3.77,19.8,11,21.23,23.72,1,8.49,2,17.19,1.13,25.61-4.17,41.43-25.57,75.55-48.13,108.84-9.7,14.3-19.48,28.49-26.78,44.1-10.58,22.61-15.34,47.18-22.47,71-4.85,16.19-9.31,32.5-13.95,48.76Z" />
        <path class="cls-8"
            d="M304,1576.18q-2.11-6.84-4.22-13.69c13.4-10.42,22.49-24.32,31.18-38.54,5.73-9.37,11.12-18.89,13.07-29.92a71.1,71.1,0,0,0,3.79-7.81c7.54-21.45,9.15-43.65,8-66.16,0-2,0-4,0-6,5.62-1.06,4.14-5.25,3.49-8.63-3.65-18.85-8.36-37.36-15.51-55.28-4.06-10.16-8.46-19.24-20-22.29-11.15-15.3-24.2-28.66-40-39.27-1.58-1.07-2.7-2.83-4-4.27q1.05-5.17,2.09-10.34c4.46,2.76,9.13,5.23,13.36,8.31,36,26.18,57.8,61.68,68.45,104.49,1.11,4.46,2.49,8.85,3.74,13.27q.27,14.49.56,29c.86,42.73-12.18,81.09-36.19,116.08C323.89,1556.67,314.89,1567.25,304,1576.18Z" />
        <path class="cls-9" d="M413.81,1336l-2,8C409,1339.22,409.23,1338.15,413.81,1336Z" />
        <path class="cls-8" d="M747.78,670.05c.66-2,1.33-4,2-6.07C753.15,667.33,750.12,668.57,747.78,670.05Z" />
        <path class="cls-8"
            d="M743.57,673.89q2.11-1.95,4.25-3.88c-.08,1.24-.15,2.47-.22,3.71l-2.17.24A7.73,7.73,0,0,1,743.57,673.89Z" />
        <path class="cls-17"
            d="M571.32,534c.13-25,.44-49.91.36-74.87q-.28-87.76-.89-175.54c-.29-38.52-.95-77-1.41-115.57,0-4,.12-8,.19-12,6.12-.38,7.23-5.3,8.36-9.75,4.71-18.53,13.51-35.35,22-52.25,7.8-15.53,20.14-27,35.12-35.71,9.22-5.32,19.49-6.28,29.81-6.29,81.3-.09,162.61.78,243.89-.52,31.9-.51,63.88-2.67,95.72-1.26,81.22,3.6,162.49,2.73,243.65,1.15,117.23-2.28,234.43-.71,351.64-1.3s234.6,1.47,351.85-.65c102.73-1.86,205.44-.83,308.16-1.36S2465,48,2567.64,47.9c7.58,0,15.16-1.2,22.75-1.7,18.76-1.23,36,2.28,51.82,13.57,11.91,8.51,18.38,19.4,21.22,33.38,3.14,15.53,7.1,30.9,10.48,46.38a56.52,56.52,0,0,1,1.18,11.83c.09,53.32-1.45,106.71.5,160,2.27,62.27.62,124.51,1.7,186.75.09,5.25,1.56,10.47,2.39,15.71-10.28,17-14.34,35.37-14.5,55.13-.21,26.53-1.2,53.07-2.28,79.59-.32,7.9-1,16.08-3.34,23.56-6.13,19.71-3.92,39.33-1.47,59.14,1.42,11.52,2.31,23.12,3.18,34.7.79,10.4-1.79,20.38-3.81,30.51-4.6,23.07-8.44,46.29-12.58,69.46l-3.2-.06c-.18-23.64-.43-47.27-.52-70.91-.09-24.62-.14-49.25,0-73.88.22-36.94.79-73.88.92-110.81.1-28.87-.35-57.75-.34-86.62,0-20.27.48-40.54.57-60.81q.33-79.2.5-158.4c.11-45.26.44-90.53,0-135.79-.08-9.1-2.79-18.23-4.78-27.24a93.44,93.44,0,0,0-5-15.11c-7.35-17.92-20.45-30-38.35-37-15.87-6.27-32-9.85-49.37-9.52-29.27.55-58.58-.67-87.87-.6q-154.82.33-309.64,1.1c-28.22.13-56.43,1.24-84.64,1.3-47.93.1-95.86-.51-143.78-.38-32.92.09-65.84.94-98.75,1.46-3-.18-6-.54-9-.53q-191.55.38-383.1.82-118.68.33-237.37.89-78.35.26-156.69.35c-3.65,0-7.3.26-10.95.4l-47.91.07c-2.65-.14-5.31-.42-8-.4q-63.33.34-126.65.79c-38.28.29-76.56.31-114.82,1.16-16.51.37-32.79,2-49,7.19-38.23,12.36-51.72,51.59-52.45,80.7-.69,27.51.19,55.07.25,82.6.06,25.27-.11,50.54-.06,75.81,0,12.93.28,25.85.45,38.78l.81,62.81q0,11,.08,22c-.25,16.63-.73,33.27-.71,49.9q.11,102.39.56,204.77a29.79,29.79,0,0,1-6.3,19.29c-13.66,18-26.79,36.36-40.19,54.54-1.43,1.94-3.24,3.59-5.4,5.94-.72-2.06-1.3-2.93-1.3-3.81-.1-17.62,0-35.25-.22-52.88-.14-11.9-.7-23.8-1.07-35.7l-.06-4c.06-23.83.23-47.66.17-71.49-.06-27.5-.33-55-.51-82.51C571.33,538,571.32,536,571.32,534Z" />
        <path class="cls-6"
            d="M2853.19,624q5.19,15.59,10.4,31.14c-.82,2.83-2.46,5.71-2.31,8.49.5,9.23,1.61,18.44,2.58,27.64,1,9.85,2.61,19.67,3.15,29.55,1,18.55,1.43,37.14,2.12,55.71,1.08,29.63,11.82,55.93,26.34,81.41,12,21,23.42,42.48,31.68,65.37q26.19,72.6,52.32,145.2c4.73,13.12,9.65,26.16,14.47,39.24,1.15,3.1,1.84,6.58,6.16,6.81,1.45,8.48,4.07,16.87,2.38,27.41L2991,1122.07a19.92,19.92,0,0,0-.93-3.82q-26.74-57.76-53.64-115.46c-3.35-7.14-7.52-13.9-11.31-20.83l0,0c-.76-5.78-1.69-11.46-8-14l0,0c0-2,0-4,0-6,3-3,.57-3.55-1.88-4l-2.1-6c3-3.07.5-3.55-1.93-4l-8.18-20c3.29-4.91.21-6.72-3.91-8-1-1.16-1.85-2.41-2.92-3.47-2.35-2.34-2.86-.73-3,1.5-3.58,2.55-1.22,5.18-.18,7.86,7,17.85,14,35.67,20.79,53.59,6.91,18.23,13.64,36.53,20.33,54.85,7,19.22,13.91,38.49,20.86,57.74-1.13-.58-2.79-.87-3.32-1.8-2.95-5.17-5.73-10.46-8.39-15.79-4.28-8.62-8-17.51-12.69-25.91-11.75-21.2-25.19-41.58-35.54-63.43-14.75-31.14-35.75-58.33-52.6-88.09-2.27-4-5.68-6.49-10.59-3.66a14.45,14.45,0,0,0-.68,3.19c.84,28.13-6.83,54.38-17.25,80.12-6.1,15.06-11.6,30.38-17.12,45.68-2.47,6.86-3.36,14.43-6.62,20.82-8,15.65-5.25,32.72-6.28,48.93-.81,12.68,4,26.05,7.93,38.61,3.83,12.31,9.4,24.12,14.7,35.92,6.13,13.65,11.68,27.74,19.45,40.43,19.68,32.13,26.83,67.43,29.07,104.24.24,4,.15,8,.26,12,.55,19.58,2.1,39.2,1.4,58.73-.68,18.78-3.73,37.48-5.6,56.22-.28,2.86-.47,5.36-4,5.8-.69-20.19-.18-40.5-2.35-60.53-3.19-29.47-4.82-59.26-12-88.14-4.6-18.57-10.91-36.74-16.71-55-.74-2.33-3-4.16-4.59-6.21-4.35-13.39-11.43-25.45-19.7-36.61-14.45-19.48-33-34.33-54.08-46.37-13.5-7.72-26.52-16.3-39.51-24.85-2.91-1.92-4.82-5.35-7.2-8.08-.12-1,.12-2.29-.42-2.89-9.39-10.42-15.63-22.76-22.07-35-9.14-17.45-16.38-35.78-17-55.42-.7-22.09,1.13-44.26,1.95-66.4,0-.83,1-1.62,1.56-2.44a7.91,7.91,0,0,0,1.94.16l1.29.73-.75-1.27c-.78-1.58-1.57-3.15-2.35-4.73l-.32-.47-2-4.35c.76-1.74,2.25-3.52,2.15-5.21-1.16-18.82,6.26-36.36,7.93-54.78,1.22-13.44,4.05-26.73,6.12-40.09,2.58-16.61,5.72-33.16,7.45-49.86,1-9.28,2.84-19-1.49-28.19,2.56-4.46,5.25-8.84,7.63-13.4,1.76-3.38,3.11-7,4.64-10.47.48-.74,1-1.46,1.43-2.22,0,0-.45-.39-.69-.59-.34.85-.69,1.7-1,2.56-1.78,1.75-3.35,3.81-5.38,5.17-1.87,1.24-4.24,1.73-6.39,2.55,1.61-13.79-4.52-27.54-.17-41.35a5.88,5.88,0,0,0-.08-3c-2.35-10,.17-20,.12-30,0-6.88,2-13.79,1.87-20.66-.62-23.5,2.33-47.09-1.65-70.52-.49-2.86.14-5.94.42-8.9.38-3.93,1-7.83,1.38-11.76.74-7.88.5-16,2.26-23.61,3.44-14.9,9.57-28.33,25.77-33.76-.91,3.14-1.73,6.32-2.75,9.43-1.76,5.33-4.34,10.5-5.32,16a272.58,272.58,0,0,0-3.84,30.41c-1.08,16.86-1.77,33.77-1.92,50.67a41.18,41.18,0,0,0,3.5,16.29c3.2,7.41,8.7,12.1,17.9,11.33,12.92-1.08,22.27-7.08,28.57-18.21,3.87,4.1-1.29,7.75-.59,11.7-.15.61-.31,1.22-.47,1.83l1.14-1.17c5.52,18.62,10.42,37.28,12,56.82,1.2,14.45,4.46,28.72,6.74,43.09.41,2.59.48,5.24.7,7.86-1.07-.67-2.89-1.15-3.12-2-3-11.85-6.11-23.7-8.56-35.68-2.12-10.42-6.45-18.46-16.89-22.88-7.21-3.05-12.87.66-19.16,2.26-5.54,1.4-8.83,4.28-11.16,9.94-3.37,8.21-5.26,16.3-4.94,25.15.16,4.23-.77,8.53-1.47,12.75-2.39,14.39-5.34,28.67-4.53,43.43.26,4.88-1,9.83-1.47,14.76-.83,8.56-2,17.12-2.25,25.7-.15,5.23,2.26,10.62,1.66,15.71-2.75,22.93,5.34,44.68,6.57,67.13.57,10.58,2.23,21.28,1.27,31.73-1.8,19.72-4.68,39.37-8,58.91-2.42,14.3-2.64,28.4.41,42.47,3,13.81,8.08,26.74,18.92,36.52,1.88,1.7,4.67,4.13,6.57,3.77,9.94-1.88,21-2.36,25.58-14q5.63-14.34,10.94-28.78c1.72-4.67,3.11-9.47,4.65-14.21,6.45-19.87,13-39.7,19.3-59.64,3.88-12.36,7.67-24.58,14.83-35.69,3.07-4.75,4.42-11.14,4.9-16.92,1.11-13.4-1.39-26.28-6.77-38.8-4.57-10.65-7.81-21.88-11.75-32.81-.94-2.63-2-5.07,1.09-7,3.4,9.6,6.49,19.34,10.31,28.78,3.69,9.13,10.08,15.83,21.41,19.51l-3.1-6.05,23-6c6.92-1.16,8.09-6.58,7.83-12-.44-9.21-.94-18.56-2.84-27.55-5.39-25.54-11.7-50.89-17.23-76.41-2.43-11.25-3.83-22.74-5.71-34.12,7.68,1.24,12.67-1.82,15.6-9.07,2.85-7.06,6-14,9.48-20.81,1.55-3,4.27-5.44,6.47-8.13,1,14.48.81,29.16,8.3,42.55l-4.35-38.44c2.47,3.62,3.19,7.46,4.15,11.23.91,3.61-1.31,8.31,4.56,12-1-13.61-1.9-25.75-2.85-37.87-1-13.15-2.15-26.29-3.23-39.44Zm-132,28.16-.17-.2c-8.71-3.12-13.6-.83-18.86,9.34,9.06-2.22,18.31-1.65,28.43-8Z" />
        <path class="cls-20"
            d="M2777.51,825.81c-3.11,1.9-2,4.34-1.09,7,3.94,10.93,7.18,22.16,11.75,32.81,5.38,12.52,7.88,25.4,6.77,38.8-.48,5.78-1.83,12.17-4.9,16.92-7.16,11.11-10.95,23.33-14.83,35.69-6.27,19.94-12.85,39.77-19.3,59.64-1.54,4.74-2.93,9.54-4.65,14.21q-5.33,14.45-10.94,28.78c-4.58,11.68-15.64,12.16-25.58,14-1.9.36-4.69-2.07-6.57-3.77-10.84-9.78-15.93-22.71-18.92-36.52-3.05-14.07-2.83-28.17-.41-42.47,3.3-19.54,6.18-39.19,8-58.91,1-10.45-.7-21.15-1.27-31.73-1.23-22.45-9.32-44.2-6.57-67.13.6-5.09-1.81-10.48-1.66-15.71.25-8.58,1.42-17.14,2.25-25.7.48-4.93,1.73-9.88,1.47-14.76-.81-14.76,2.14-29,4.53-43.43.7-4.22,1.63-8.52,1.47-12.75-.32-8.85,1.57-16.94,4.94-25.15,2.33-5.66,5.62-8.54,11.16-9.94,6.29-1.6,12-5.31,19.16-2.26,10.44,4.42,14.77,12.46,16.89,22.88,2.45,12,5.55,23.83,8.56,35.68.23.89,2.05,1.37,3.12,2,.2,1.28.39,2.56.58,3.84-3.53,3-2.87,5,1.46,6.16.15,1.29.31,2.58.46,3.86-.62,1.4-2,2.93-1.75,4.18,1.78,10,3.62,20,6,29.95.69,2.9,3.09,5.38,4.71,8.05l1,5.84c-2.16,5.76-.72,12.29,3.54,16.12Z" />
        <path class="cls-3"
            d="M2811.19,712c1.88,11.38,3.28,22.87,5.71,34.12,5.53,25.52,11.84,50.87,17.23,76.41,1.9,9,2.4,18.34,2.84,27.55.26,5.4-.91,10.82-7.83,12-2.09-.3-4.25-1.08-6.25-.79-6.59,1-13,1.59-19.5-.9-8.59-3.27-10-11.67-13.94-18.27-5.51-9.33-4.27-19.84-4.69-30a51.62,51.62,0,0,0,.45-5.93c-.69-21.13-.93-42.3-2.46-63.37-.53-7.19-1.74-15.1-7.38-20.94-1-2.78-2.28-4.95-5.31-1.8l.05.23c-.35-3.17-.12-6.56-1.17-9.48a165.35,165.35,0,0,0-8.19-19.24,47.33,47.33,0,0,1-5.56-22.94c.08-4.56-1.32-9.14-2.06-13.71-3.87-23.84-7.78-47.67-11.55-71.53-.51-3.26-.22-6.65-.48-10-1.07-13.85-2.22-27.69-3.34-41.53,6,1.57,7.45,6.77,9.63,11.69,4.56,10.29,9.27,20.54,14.61,30.43,7.09,13.13,15.41,25.61,22.2,38.88C2800.13,643.9,2806.35,677.77,2811.19,712Z" />
        <path class="cls-12"
            d="M2811.19,712c-4.84-34.18-11.06-68.05-27-99.14-6.79-13.27-15.11-25.75-22.2-38.88-5.34-9.89-10.05-20.14-14.61-30.43-2.18-4.92-3.58-10.12-9.63-11.69q-2.33-7.87-4.64-15.75c-2.36-7.42-4.33-15-7.2-22.23-2.68-6.75-5.79-13.22-4.44-20.76,12.64,14,25,28.32,38,42,14.36,15.07,29.18,29.7,44.12,44.19a63,63,0,0,0,13.77,9.64c21.94,11.94,32.78,30.93,35.81,55.08h-3.87l-2-5.31-1.12.5q.33,18.4.68,36.81c-.54,0-1.09,0-1.64,0-.74-2.8.85-6.54-4-9,.52,9.67,1,18.32,1.45,27-2.19,2.69-4.91,5.11-6.46,8.13-3.49,6.77-6.63,13.75-9.48,20.81C2823.86,710.13,2818.87,713.19,2811.19,712Z" />
        <path class="cls-15"
            d="M1023.63,84.51c3.65-.14,7.3-.39,10.95-.4q78.35-.19,156.69-.35,118.7-.39,237.37-.89,191.55-.51,383.1-.82c3,0,6,.35,9,.53.26,1.48.53,3,.8,4.46-38.57.25-77.13.59-115.7.73-76.17.28-152.33.38-228.5.72-30,.14-60,1-90,1-34.49.12-69-.44-103.47-.31-51.16.19-102.33.88-153.49,1.07-36.2.13-72.41-.21-108.61-.34Z" />
        <path class="cls-12"
            d="M2741.32,623.91c-6.3,11.13-15.65,17.13-28.57,18.21-9.2.77-14.7-3.92-17.9-11.33a41.18,41.18,0,0,1-3.5-16.29c.15-16.9.84-33.81,1.92-50.67a272.58,272.58,0,0,1,3.84-30.41c1-5.47,3.56-10.64,5.32-16,1-3.11,1.84-6.29,2.75-9.43q1.08-2.76,2.17-5.51c11.41.07,17.48,7.87,21.11,16.81a117.43,117.43,0,0,1,8.65,39.41C2738,580.48,2739.87,602.18,2741.32,623.91Z" />
        <path class="cls-3"
            d="M2654.86,950.47l.32.47c0,1.7-.09,3.41-.13,5.11-.54.82-1.53,1.61-1.56,2.44-.82,22.14-2.65,44.31-1.95,66.4.62,19.64,7.86,38,17,55.42,6.44,12.28,12.68,24.62,22.07,35,.54.6.3,1.91.42,2.89-1.71-.93-3.74-1.53-5.09-2.84-10-9.66-20.61-18.78-29.38-29.44a110.7,110.7,0,0,1-17.26-28.88c-5.59-14-11.07-28.5-10-44.18,1.28-17.8,2.46-35.63,4.31-53.38.76-7.35,3.16-14.54,4.86-22C2644.23,941.59,2646.07,950.5,2654.86,950.47Z" />
        <path class="cls-3"
            d="M2675.05,768c4.33,9.18,2.45,18.91,1.49,28.19-1.73,16.7-4.87,33.25-7.45,49.86-2.07,13.36-4.9,26.65-6.12,40.09-1.67,18.42-9.09,36-7.93,54.78.1,1.69-1.39,3.47-2.15,5.21-2.86-3.18-5.7-6.39-8.59-9.54-4.25-4.61-4.07-9.65-3-15.61,3.74-20.48,6.66-41.1,10.15-61.63.65-3.81,2.91-7.32,3.68-11.12,2.22-11,4-22.14,6.08-33.18,2.73-14.27,5.63-28.5,8.46-42.75Z" />
        <path class="cls-3"
            d="M2707.35,502.51q-1.09,2.75-2.17,5.51c-16.2,5.43-22.33,18.86-25.77,33.76-1.76,7.64-1.52,15.73-2.26,23.61-.38,3.93-1,7.83-1.38,11.76-.28,3-.91,6-.42,8.9,4,23.43,1,47,1.65,70.52.18,6.87-1.91,13.78-1.87,20.66,0,10-2.47,20-.12,30a5.88,5.88,0,0,1,.08,3c-4.35,13.81,1.78,27.56.17,41.35l-8,6.29q-2.1-29.22-4.19-58.42A63.2,63.2,0,0,1,2667,673.1a42.75,42.75,0,0,0,2.24-13.6c.26-16.28-.35-32.59.25-48.85.63-17.17,2.44-34.3,3.37-51.46.51-9.58-.37-19.19,3.82-28.36s9.28-17.57,17-24.18C2697.57,503.29,2701.92,501,2707.35,502.51Z" />
        <path class="cls-9"
            d="M2721.48,473.07c-1.35,7.54,1.76,14,4.44,20.76,2.87,7.22,4.84,14.81,7.2,22.23a15.87,15.87,0,0,1-2.87-2.66c-9.17-13.76-9.78-14.18-26.33-16.53a68.09,68.09,0,0,1-.81-7.37c-.09-10.55-.14-21.09.06-31.64,0-2.41,1.16-4.79,1.77-7.19,4.51,5.85,9,11.68,13.49,17.57C2719.58,469.75,2720.47,471.45,2721.48,473.07Z" />
        <path class="cls-15"
            d="M2779.36,805.37c.57-9.46,1.61-18.92,1.58-28.38a315.18,315.18,0,0,0-1.79-35.58c-.7-5.95-4-11.6-6.09-17.38l2.31-2.26c5.64,5.84,6.85,13.75,7.38,20.94,1.53,21.07,1.77,42.24,2.46,63.37a51.62,51.62,0,0,1-.45,5.93C2779.84,812.34,2778.62,809.65,2779.36,805.37Z" />
        <path class="cls-8"
            d="M2667.26,757.88l8-6.29c2.15-.82,4.52-1.31,6.39-2.55,2-1.36,3.6-3.42,5.38-5.17l.29.25c-1.53,3.5-2.88,7.09-4.64,10.47-2.38,4.56-5.07,8.94-7.63,13.4l-5.37,4.3Q2668.47,765.09,2667.26,757.88Z" />
        <path class="cls-6"
            d="M2772.31,800.08c-1.62-2.67-4-5.15-4.71-8.05-2.36-9.9-4.2-19.92-6-29.95-.23-1.25,1.13-2.78,1.75-4.18Z" />
        <path class="cls-16"
            d="M2373.23,1490.75l16.07,0a3.79,3.79,0,0,1-.12,1.5c-.84.86-1.69,1.72-2.54,2.57l-13.43.86C2373.21,1494,2373.22,1492.38,2373.23,1490.75Z" />
        <path class="cls-6" d="M2776.87,822c-4.26-3.83-5.7-10.36-3.54-16.12Z" />
        <path class="cls-21" d="M2641.68,865.82l3.2.06-2.16,11.59-1,0Z" />
        <path class="cls-22"
            d="M2763,712l-3.23.11c-.38-2.45-.75-4.89-1.13-7.33l1.67-.47C2761.19,706.89,2762.09,709.46,2763,712Z" />
        <path class="cls-6" d="M2762.91,754c-4.33-1.14-5-3.16-1.46-6.16C2761.94,749.93,2762.42,752,2762.91,754Z" />
        <path class="cls-22"
            d="M2758,701.46a8.42,8.42,0,0,1-.09-1.24c0-.09.22-.15.34-.23C2758.23,700.33,2758.18,700.67,2758,701.46Z" />
        <path class="cls-4" d="M2386.64,1494.8c.85-.85,1.7-1.71,2.54-2.57l-.48,3.18Z" />
        <path class="cls-4"
            d="M432.8,1317.66c-3-21.47,28.9-106.67,45.86-123.35,1.25,4.33-1.56,7.16-3.17,9.91-11.63,19.92-19.76,41.16-25.69,63.42-4.18,15.68-9.46,31.07-14.31,46.56C435.23,1315.05,434.35,1315.71,432.8,1317.66Z" />
        <path class="cls-16"
            d="M464.08,1352.07a7.49,7.49,0,0,1,.54,1.4c0,.1-.45.31-.7.47A5.38,5.38,0,0,1,464.08,1352.07Z" />
        <path class="cls-2" d="M453.38,1218.07l2.5-2.12Z" />
        <path class="cls-20"
            d="M2847.16,1444c3.52-.44,3.71-2.94,4-5.8,1.87-18.74,4.92-37.44,5.6-56.22.7-19.53-.85-39.15-1.4-58.73-.11-4,0-8-.26-12-2.24-36.81-9.39-72.11-29.07-104.24-7.77-12.69-13.32-26.78-19.45-40.43-5.3-11.8-10.87-23.61-14.7-35.92-3.91-12.56-8.74-25.93-7.93-38.61,1-16.21-1.71-33.28,6.28-48.93,3.26-6.39,4.15-14,6.62-20.82,5.52-15.3,11-30.62,17.12-45.68,10.42-25.74,18.09-52,17.25-80.12a14.45,14.45,0,0,1,.68-3.19c4.91-2.83,8.32-.34,10.59,3.66,16.85,29.76,37.85,57,52.6,88.09,10.35,21.85,23.79,42.23,35.54,63.43,4.65,8.4,8.41,17.29,12.69,25.91,2.66,5.33,5.44,10.62,8.39,15.79.53.93,2.19,1.22,3.32,1.8q3.21,10.37,6.4,20.73c4.71,15.42,9.21,30.88,9.73,47.17-.67,12.88-.57,25.87-2.23,38.62a281.15,281.15,0,0,1-8.1,40.71c-9.54,33.59-23.63,65.44-38.68,96.89-3.67,7.67-6,16-8.95,24l-2,3.9c-1.87,1.61-4.5,2.84-5.48,4.88-8.46,17.56-16.14,35.51-25,52.85-7.65,14.94-12.28,31.41-22.75,45-1.71,2.2-2.09,5.46-3,8.27-1,3.16-1.64,6.57-5.89,7Q2848.16,1463,2847.16,1444Z" />
        <path class="cls-4"
            d="M2797.11,1218c1.51,5,2.21,10.46,4.66,15,14.92,27.41,20.81,57.92,30.34,87.17,1.06,3.25.85,6.92.42,10.61-4.31-4-5.71-9.34-7.3-14.46-8.25-26.54-14.63-53.7-26.26-79.09-3.45-7.51-7.71-14.64-11.57-22a9.58,9.58,0,0,1-1.27-6.15c1.49,1.3,2.93,2.66,4.47,3.9,2.15,1.74,4.37,3.39,6.56,5.08Z" />
        <path class="cls-12"
            d="M400,642.1a80.74,80.74,0,0,1,3.46,32.13q-1.78,16.75-3.61,33.5c-1.23,11.5-3.34,23-3.5,34.49-.28,20.08-6,39.22-8.52,58.89s-8.27,38.18-14.86,56.63c-9.83,27.52-19.42,55.13-29.54,82.54-3.44,9.33-8.18,18.18-12.31,27.26-13.36,29.33-26.61,58.72-40.12,88-5.15,11.14-11.07,21.92-16.31,33-2.39,5.09-4,10.54-5.94,15.85-1.08,3-1.58,5.87,1.73,7.9l-8.12,16.09c0-7-.29-11.76.05-16.44,1-13.51,2.29-27,3.44-40.5q1.77-20.82,3.5-41.65c.21-2.65.19-5.31.32-8,1.73-33.14,3.41-66.33,9.78-99,4.38-22.43,10-44.64,15.51-66.82,5.81-23.21,18.94-42.88,30.77-63.32q25.92-44.81,49.17-91.13C384.56,682.39,391.75,662,400,642.1Z" />
        <path class="cls-23"
            d="M355.88,1414c0,2,0,4,0,6-5.18,6.82-9.88,14.1-15.65,20.39-14.68,16-33.13,26.26-53.38,33.56-3.06,1.11-6,2.61-9,3.93l-3.88.31-4.08,1.79c-38.06,11.79-76.87,12.39-116,7.89q2.15-7.11,4.27-14.22c5.49-.1,9.05-3.27,11.89-7.55,7.75-8.85,11.44-19.32,12.13-30.92.26-4.37.33-8.78-4.24-11.39q3.08-7.95,6.17-15.89c10.82-.62,21.65-1.31,32.49-1.85,24.28-1.19,46.13-10.19,67.33-21.14,1.74-.89,2.7-3.28,4-5,11.76.53,21.06-5.31,29.26-12.55,6.29-5.57,11.36-12.53,18-20.06,10.76,18.5,17.68,37.24,18.83,58l-6.19,5.85c-1.09-.33-2.82-.34-3.18-1-5.81-11.49-11.45-23.07-17.16-34.69l2.92-5.79-1.52-1-12.76,11.86.73,1.3,6.87-2.07c5.31,10.84,10.82,21.75,15.92,32.85,1,2.07.25,4.91.3,7.4-3,1.93-5.29,4.23-4,9.1l8.24-8.73,4-4.16,6.23-6.37C354.91,1411.27,355.39,1412.65,355.88,1414Zm-48,28-5.66.37c-2.34-8.33-4.56-16.25-6.79-24.21,8.2-1.17,8.5-1.47,9.65-9.34.3-2.1.59-4.2.89-6.3l1.69-.43c5,10.56,9.95,21.12,14.85,31.53,4.19-1.76,4.17-4.62,2.7-7.63-5.67-11.65-11.36-23.3-17.3-34.81-.89-1.73-3.16-2.74-6.3-5.32-.64,9.12-1.16,16.43-1.73,24.47l-14-10.59-2.07,1.38,15,48,8.89-7.32a3,3,0,0,0,.79-.2c.13-.07.16-.33.24-.51Zm-113.22-19.24-2.44-.24c-4.12,18.78-8.24,37.56-12.76,58.21,6.91-6,6.89-12.92,8.56-19,1.78-6.45,3-13,4.9-21.54,7.17,12.21,8,25.16,16.88,34.61,4.36-4.35,2.07-9.3,2.75-13.61.72-4.6.95-9.27,1.54-13.89s1.35-9.21,2-13.82c.59-4.19,1.12-8.38,1.68-12.57l-2.4-.31c-5.48,11.49-3.8,24.8-8.49,38.73ZM292,1452.89c-6.74-16.23-9-32.86-18.38-49.76-2.73,8.41-4.73,14.56-7,21.53-7.38-9.15-7.38-9.15-12.17-10.07,1,16.88,2,33.81,3.07,51.67,2-1.36,4-2.08,4-2.76-.29-11.9-.82-23.8-1.32-36.29,10,8.24,9.88-3.85,14.85-8.18,2.86,13.34,10.14,24.34,8.43,38.26Zm-69.36-4.3c0,1.94-.17,4.6.05,7.22a40.32,40.32,0,0,0,1.32,7.82c1.79,6.17,6.14,8.15,11.19,4.24,4-3.13,8-7.28,10-11.86,4.3-9.66,3.71-20,1.14-30.19-1-4-2.91-7.47-7.75-7.87-5.25-.43-9.15,1.6-10.65,6.75C225.76,1432.33,220.6,1439.28,222.64,1448.59Z" />
        <path class="cls-10"
            d="M354.05,1405.37c-1.15-20.74-8.07-39.48-18.83-58-6.66,7.53-11.73,14.49-18,20.06-8.2,7.24-17.5,13.08-29.26,12.55l-3.49-.29c-1-1.27-1.75-2.86-3-3.77-12.45-9.06-26.34-11.26-41.39-9-14,2.07-28.08,3.45-42.13,5.14q6.87-18,13.75-36c15.8-3.6,31.51-7.73,47.44-10.63a142,142,0,0,1,31.44-2.56c11.14.48,22.19,3.23,33.28,5,11.56,3.05,16,12.13,20,22.29,7.15,17.92,11.86,36.43,15.51,55.28.65,3.38,2.13,7.57-3.49,8.63-.49-1.39-1-2.77-1.45-4.16C354.3,1408.38,354.18,1406.87,354.05,1405.37Z" />
        <path class="cls-9"
            d="M153.87,1487.93c39.17,4.5,78,3.9,116-7.89,2.94,3,3.55.7,4.08-1.79l3.88-.31c2.11.66,4.26,2,6.31,1.84a120.3,120.3,0,0,0,15.69-2.16c13.72-2.8,25.36.67,35.34,10.53,2.47,2.44,5.86,3.95,8.83,5.88-2,11-7.34,20.55-13.07,29.92-8.69,14.22-17.78,28.12-31.18,38.54-4.22-8.63-8.15-17.41-12.72-25.85-11.75-21.64-30.68-32.53-54.68-34.45-17.06-1.36-34.23-1.16-51.31-2.28-10.5-.69-20.93-2.55-31.39-3.89Z" />
        <path class="cls-6"
            d="M259.84,1592c-1.31,1.69-2.26,4-4,5-10.6,5.73-21.17,11.72-33.79,11.64-4.65-.18-9.29-.54-13.93-.48-26.69.36-51-6.81-73.11-21.93-5.94-4.06-12.75-6.86-19.15-10.25l6.45-17.9c14.21.64,28.42,1.77,42.64,1.78a242.24,242.24,0,0,1,42.36,4.22,206.46,206.46,0,0,1,22.1,4.8c8.66,2.55,13.91,9.9,20.24,15.74C252.73,1587.44,256.43,1589.58,259.84,1592Z" />
        <path class="cls-9"
            d="M323.84,1327.84c-11.09-1.76-22.14-4.51-33.28-5a142,142,0,0,0-31.44,2.56c-15.93,2.9-31.64,7-47.44,10.63,3.15-11.66,4.35-24,12.19-34,18.6.89,34-6.84,48.07-18l7.9.25c1.33,1.44,2.45,3.2,4,4.27C299.64,1299.18,312.69,1312.54,323.84,1327.84Z" />
        <path class="cls-7"
            d="M115.88,1576c6.4,3.39,13.21,6.19,19.15,10.25,22.1,15.12,46.42,22.29,73.11,21.93,4.64-.06,9.28.3,13.93.48-2.32,1.56-4.44,3.87-7,4.55-20.21,5.37-40.84,8.47-61.68,6.55-15.34-1.42-30.79-3.6-45.28-9.51-2.29-.93-4.17-2.83-6.25-4.27C104.28,1594.9,109.36,1585.1,115.88,1576Z" />
        <path class="cls-9"
            d="M284.45,1379.71l3.49.29c-1.33,1.69-2.29,4.08-4,5-21.2,11-43.05,20-67.33,21.14-10.84.54-21.67,1.23-32.49,1.85q4-11,8.06-21.92c4.92-.47,9.94-.52,14.76-1.5q16.51-3.39,32.88-7.55c10.41-2.63,20.74-4,31.28-.85C275.49,1377.47,280,1378.53,284.45,1379.71Z" />
        <path class="cls-24"
            d="M259.84,1592c-3.41-2.45-7.11-4.59-10.17-7.42-6.33-5.84-11.58-13.19-20.24-15.74a206.46,206.46,0,0,0-22.1-4.8,242.24,242.24,0,0,0-42.36-4.22c-14.22,0-28.43-1.14-42.64-1.78l7.6-14.12c18.24.71,36.57.53,54.69,2.42a257.39,257.39,0,0,1,42.74,8.65c11.7,3.28,21.09,10.74,28.07,21.14C258.78,1581.15,260.55,1586.13,259.84,1592Z" />
        <path class="cls-7"
            d="M271.94,1284.05c-14.1,11.13-29.47,18.86-48.07,18,.95-4.43,1.27-9.13,3-13.25,3.25-7.78,7.3-15.24,11-22.83,8.06,3.06,16.25,5.81,24.11,9.29C266,1277,270.68,1278.82,271.94,1284.05Z" />
        <path class="cls-8"
            d="M323.86,1012c-2.16,6.2-3.73,12.68-6.58,18.54-12,24.65-24.3,49.12-36.62,73.59-.81,1.61-2.63,2.72-4,4.06l-2.82-.19c3-7.74,5.46-15.7,9-23.18,16-34,32.31-67.9,48.55-101.81a21.13,21.13,0,0,1,2.29-3.18l.5.44c0,9-6.25,15.49-9,23.35-.92,2.6-5.1,5.07-1.21,8.45Z" />
        <path class="cls-3"
            d="M268.08,1238.28a37.84,37.84,0,0,1-.23,25.83c-7-2.7-14-5.28-20.91-8.18-2-.83-3.53-2.62-5.27-4q8.33-24.95,16.66-49.88l1.47-.24c.71,4.46,1.52,8.91,2.12,13.39.79,5.91,1.14,11.9,2.26,17.74C264.56,1234.92,266.73,1236.52,268.08,1238.28Z" />
        <path class="cls-24"
            d="M284.45,1379.71c-4.46-1.18-9-2.24-13.38-3.57-10.54-3.17-20.87-1.78-31.28.85q-16.35,4.14-32.88,7.55c-4.82,1-9.84,1-14.76,1.5q2.9-7,5.78-14c14-1.69,28.14-3.07,42.13-5.14,15.05-2.23,28.94,0,41.39,9C282.7,1376.85,283.46,1378.44,284.45,1379.71Z" />
        <path class="cls-10"
            d="M271.94,1284.05c-1.26-5.23-5.9-7-9.95-8.82-7.86-3.48-16.05-6.23-24.11-9.29L240,1260c10.47,3.56,20.92,7.17,31.42,10.63a48,48,0,0,0,6.7,1.26l3.85,2.07q-1.05,5.16-2.09,10.34Z" />
        <path class="cls-23"
            d="M161.72,1467.76c3.2-13.17,7-26.12,14.18-37.8.31,3.77,1.72,7.88.7,11.25-2.33,7.73-5.85,15.11-8.89,22.63Z" />
        <path class="cls-22"
            d="M167.71,1463.84c3-7.52,6.56-14.9,8.89-22.63,1-3.37-.39-7.48-.7-11.25.67-2,1.35-4.07,2-6.11,4.57,2.61,4.5,7,4.24,11.39-.69,11.6-4.38,22.07-12.13,30.92Z" />
        <path class="cls-8"
            d="M278.08,1271.89a48,48,0,0,1-6.7-1.26c-10.5-3.46-20.95-7.07-31.42-10.63l1.71-8c1.74,1.34,3.3,3.13,5.27,4,6.89,2.9,13.93,5.48,20.91,8.18Z" />
        <path class="cls-11" d="M167.71,1463.84l2.32,2.32c-2.84,4.28-6.4,7.45-11.89,7.55l3.58-6Z" />
        <path class="cls-10"
            d="M2949.17,1555.59c-14-.31-19.08-11.46-25.75-20.81-1.77-2.49-4.15-4.55-6.25-6.8l-11.92-32q-.93-9.93-1.87-19.87l9.76-8.18c1.31,5.67,3.23,11.27,3.81,17,1.81,18,8.05,34.59,16,50.58,2.11,4.24,5.43,7.88,8.54,12.28,4-5.11,6.88-9.62,10.59-13.3,6.81-6.77,14.09-13.09,24.75-12.38,16.26.55,32.55,2,48.76,1.39,14.83-.59,29.63-3.09,44.34-5.42,14.39-2.27,28.64-5.39,43-8.13,1.65,1.94,3.84,3.64,4.86,5.87,5.14,11.28,10,22.69,14.86,34.1.49,1.15.3,2.59.43,3.89-20.79,5.41-41.66,10.52-62.34,16.29-23.39,6.53-46.67,2.75-70,.31C2982.64,1568.5,2966.24,1560.9,2949.17,1555.59Z" />
        <path class="cls-25"
            d="M2976.87,1522.08c-10.66-.71-17.94,5.61-24.75,12.38-3.71,3.68-6.58,8.19-10.59,13.3-3.11-4.4-6.43-8-8.54-12.28-8-16-14.23-32.55-16-50.58-.58-5.74-2.5-11.34-3.81-17,0-2,0-4,0-6,1.73-.73,3.76-1.12,5.15-2.26,7-5.75,13.87-11.69,20.78-17.57,6.76-2.6,13.33-6.08,20.32-7.6a285.82,285.82,0,0,1,38-6.09,321.83,321.83,0,0,0,66.91-12.14c4.06-1.22,8.39-1.54,12.59-2.27q3.16,7.24,6.31,14.49c.13,2.26-.1,4.61.45,6.76q6.66,25.85,13.63,51.6c.27,1,1.52,1.7,4.06,4.41-.43-6.44-.71-10.51-1-14.58q5.31,11.73,10.61,23.48c-4.61.32-9.49-.24-13.78,1.1-24.92,7.8-50.73,9.15-76.46,10.58a145.44,145.44,0,0,0-35.14,5.93C2982.51,1518.65,2979.76,1520.59,2976.87,1522.08Zm-35.59-17.88c7.12-.16,9.45,4.4,10.37,10.44.06.38.9.64,2,1.37l4.48-5.91c-11.86-12.64-20.83-27-35.2-40.06-.32,5.14-1.24,8-.54,10.49,3.62,12.7,7.7,25.27,11.51,37.91,1.14,3.8,1.91,7.7,2.93,11.93l5.42-6.65-7.13-11.94,3.42-4.56C2939.44,1506.21,2940.36,1505.21,2941.28,1504.2Zm87-32.08c13.34,1.56,12.7,15.82,20.79,24.06.27-3.26,1.08-5.34.44-6.76-3.47-7.75-7.3-15.33-11.43-23.86a14.15,14.15,0,0,0,1.07-2.3c2.81-8.18-1-19-8.18-23.58a10.57,10.57,0,0,0-11.29-.64c-4,2-2.7,5.65-2.27,8.81,1.18,8.54,2.23,17.12,4,25.55,1.53,7.51,3.9,14.85,5.9,22.26C3033.07,1487.63,3024.62,1480.44,3028.26,1472.12Zm54.93-4.59c-.11-9.63-3.85-23-7.9-28.35-4.92-6.46-10.83-6.31-15.14.53a27.44,27.44,0,0,0-2.89,6.3c-4.37,13.6-2.63,26.93,2.72,39.79,3.35,8,11.88,9,17.54,2.28C3082.53,1482.15,3083.62,1475,3083.19,1467.53ZM2957,1492.86l-1.9,1.55c1.65,2.66,2.92,5.68,5,7.9,3.83,4,8.5,3.47,12-.92,9.75-12.23,4.34-27.69-10.74-30.77-1.95-.39-4.13-.44-5.79-1.38-4-2.25-5.78-5.3-2.15-9.46l8.39,3.21c-2.23-5.18-3.25-9.88-8.62-7.58-7.22,3.11-7.87,14-1.23,18.17a20.91,20.91,0,0,0,8.43,2.53c5.6.68,9.11,3.81,11.28,8.67,1.7,3.8-.25,12.46-3.19,13.69-4.37,1.83-6.58-1.7-9.15-4.23A10.92,10.92,0,0,0,2957,1492.86Zm43.51,5,3.69-.71c-1.26-16.41-7.64-32.13-8.49-47.88,3.74-4.17,11.79-.63,13.37-10.08-7.19,1.73-13.06,2.65-18.56,4.62-5.29,1.89-12.44.85-16.12,9.36l15.9-3C2993.71,1466.29,2997.08,1482.05,3000.46,1497.81Z" />
        <path class="cls-10"
            d="M3048.67,1341.82c1.37,1.35,3.4,2.47,4,4.1,3.66,9.92,7,19.95,10.42,29.94-15.62,4.46-31,10.27-46.94,12.93a106.57,106.57,0,0,1-37.57-.51c-15.5-3.07-30.35-9.41-45.48-14.34l-10.12-4.39c-2.94-3.8-.26-6.89,1.36-10,15.77-30.54,34-59.3,61.34-81,10.09-8,20.93-15,31.43-22.52l2,4c-5.25,3.31-10.75,6.29-15.68,10s-9.12,8.74-14.14,12.5c-15.35,11.48-26.66,26.62-38.13,41.6-4.37,5.7-8,11.92-12,17.91-.16.27-.31.54-.46.81.14-.28.29-.55.44-.83,7.4-1.45,10.43-8.33,15.5-12.65,3.25-2.77,6-6,10.81-5.54,7.18,3.37,14.26,7,21.58,10.06C3006.77,1342.19,3027,1347.69,3048.67,1341.82Z" />
        <path class="cls-6"
            d="M2923,1369.54l10.12,4.4c1.7,2.72,2.88,6,5.18,8.06,9.06,8,19.42,13.93,31.5,15.9,7.79,1.27,15.95.8,23.55,2.7,14.71,3.67,29-.53,43.25-1.85,11-1,21.58-5.67,32.35-8.7l8,23.89c-4.2.73-8.53,1-12.59,2.27a321.83,321.83,0,0,1-66.91,12.14,285.82,285.82,0,0,0-38,6.09c-7,1.52-13.56,5-20.32,7.6-7.31-4.92-14.6-9.88-22-14.74a17.55,17.55,0,0,0-3.65-1.39C2912.77,1406.46,2917.26,1387.9,2923,1369.54Z" />
        <path class="cls-3"
            d="M2971.15,1159.94c-.52-16.29-5-31.75-9.73-47.17q-3.18-10.37-6.4-20.73c-6.95-19.25-13.84-38.52-20.86-57.74-6.69-18.32-13.42-36.62-20.33-54.85C2907,961.53,2900,943.71,2893,925.86c-1-2.68-3.4-5.31.17-7.86a27.43,27.43,0,0,0,2.82,3.73c2.68,2.55,2.81.15,3.12-1.76,4.12,1.31,7.2,3.12,3.91,8l-4.53-1.28c6.19,14.75,9.88,29.11,18.6,41.28l0,0c1.3,5.47,2,11.28,8,14l0,0c.46,2.89.36,6,1.5,8.62,3.18,7.23,7.17,14.11,10.3,21.37s9.28,13.79,6.31,22.82c-.26.77.37,1.93.8,2.81,2.9,5.94,5.63,12,8.94,17.71.88,1.5,3.58,1.94,4.41,2.35l1.73,8.38,0,0c.76,3.16,1,6.59,2.36,9.44,5.62,11.5,11.43,22.91,17.55,34.15,2.8,5.14,6.47,9.8,9.74,14.68,2.84,6.71,5.39,13.57,8.57,20.11,4,8.26,6.47,16.84,5.72,26-1.47,18.15-3.57,36.25-5,54.4-.7,8.6-.68,17.26-.66,25.89,0,1.07,2,2.14,3,3.21l2.95.32-14,10.1c-2-17-4-34-6.14-51-1.89-14.68-3.85-29.37-6.29-44C2976.22,1165.85,2976.55,1160.89,2971.15,1159.94Z" />
        <path class="cls-9"
            d="M3033,1615.91c-8.57-4.21-17.34-8-25.65-12.71a291.28,291.28,0,0,1-52.4-37.11c1.43-.33,3.18-1.36,4.22-.87,18.42,8.66,37.83,14.11,57.77,17.59a218.51,218.51,0,0,0,29.48,2.79c6.2.23,12.47-.93,18.69-1.63,8.83-1,17.81-1.42,26.45-3.36,16.43-3.69,32.66-8.28,49-12.5q9.09,20.81,18.19,41.59c-8.18-.76-16.48-.87-24.51-2.41-20.36-3.92-40.52-8.86-60.9-12.65-11.63-2.16-23,.68-33.82,5.21C3031.92,1603,3032.86,1609.62,3033,1615.91Z" />
        <path class="cls-9"
            d="M3048.67,1341.82c-21.66,5.87-41.9.37-61.7-8-7.32-3.07-14.4-6.69-21.59-10.06.76-1.35,1.2-3.08,2.31-4,18-14.48,37-26.44,61.62-23.93a26.19,26.19,0,0,0,3.94-.19c7.78,12.07,11.62,25.73,15.64,39.28C3049.5,1337.06,3048.78,1339.53,3048.67,1341.82Z" />
        <path class="cls-8"
            d="M2989.23,1264.24l14-10.1,13.28-6.68c.18,2.84.37,5.69.56,8.53-10.5,7.48-21.34,14.52-31.43,22.52-27.35,21.7-45.57,50.46-61.34,81-1.62,3.15-4.3,6.24-1.36,10-5.72,18.35-10.21,36.91-9.48,56.36q-.16,18-.32,36c0,2,0,4,0,6l-9.76,8.18c-.74-13.86-1.73-27.72-2.17-41.59-.71-22,2.77-43.5,8.89-64.6.55-1.89.76-3.88,1.14-5.82.65-1.3,1.3-2.6,1.94-3.91,1.92-2.63,4.23-5.05,5.69-7.91a252.64,252.64,0,0,1,45.35-62.42Q2976.76,1277.05,2989.23,1264.24Z" />
        <path class="cls-24"
            d="M3140.56,1568.11c-16.32,4.22-32.55,8.81-49,12.5-8.64,1.94-17.62,2.37-26.45,3.36-6.22.7-12.49,1.86-18.69,1.63a218.51,218.51,0,0,1-29.48-2.79c-19.94-3.48-39.35-8.93-57.77-17.59-1-.49-2.79.54-4.22.87-3.14-2.83-8-4.68-5.8-10.5,17.07,5.31,33.47,12.91,51.54,14.79,23.36,2.44,46.64,6.22,70-.31,20.68-5.77,41.55-10.88,62.34-16.29Z" />
        <path class="cls-7"
            d="M3033.25,1295.7a26.19,26.19,0,0,1-3.94.19c-24.62-2.51-43.62,9.45-61.62,23.93-1.11.9-1.55,2.63-2.31,4-4.8-.48-7.55,2.77-10.8,5.54-5.07,4.32-8.1,11.2-15.5,12.65l0,0c4-6,7.67-12.21,12-17.91,11.47-15,22.78-30.12,38.13-41.6,5-3.76,9.15-8.7,14.14-12.5s10.43-6.72,15.68-10c3.27,7.5,6.67,15,9.75,22.53C3030.58,1286.79,3031.8,1291.29,3033.25,1295.7Z" />
        <path class="cls-24"
            d="M3068.93,1390.05c-10.77,3-21.39,7.68-32.35,8.7-14.28,1.32-28.54,5.52-43.25,1.85-7.6-1.9-15.76-1.43-23.55-2.7-12.08-2-22.44-7.88-31.5-15.9-2.3-2-3.48-5.34-5.18-8.06,15.13,4.93,30,11.27,45.48,14.34a106.57,106.57,0,0,0,37.57.51c15.92-2.66,31.32-8.47,46.94-12.93Z" />
        <path class="cls-9"
            d="M2976.87,1522.08c2.89-1.49,5.64-3.43,8.7-4.37a145.44,145.44,0,0,1,35.14-5.93c25.73-1.43,51.54-2.78,76.46-10.58,4.29-1.34,9.17-.78,13.78-1.1l2,9.82c-14.32,2.74-28.57,5.86-43,8.13-14.71,2.33-29.51,4.83-44.34,5.42C3009.42,1524.11,2993.13,1522.63,2976.87,1522.08Z" />
        <path class="cls-8"
            d="M2959.1,1066l-1.73-8.38c-.83-.41-3.53-.85-4.41-2.35-3.31-5.72-6-11.77-8.94-17.71-.43-.88-1.06-2-.8-2.81,3-9-3.18-15.56-6.31-22.82s-7.12-14.14-10.3-21.37c-1.14-2.59-1-5.73-1.5-8.62,3.79,6.93,8,13.69,11.31,20.83q27,57.64,53.64,115.46a19.92,19.92,0,0,1,.93,3.82l-2.27,2.17c-3.28-4.87-6.95-9.53-9.75-14.67-6.12-11.24-11.93-22.65-17.55-34.15-1.4-2.85-1.6-6.28-2.36-9.44l3.34.36-1.63-3Z" />
        <path class="cls-6"
            d="M3016.55,1247.46l-13.28,6.68-2.95-.32q2.34-19.12,4.7-38.26l1.46-.09Q3011.52,1231.48,3016.55,1247.46Z" />
        <path class="cls-22"
            d="M3100.34,1476.62c.28,4.07.56,8.14,1,14.58-2.54-2.71-3.79-3.43-4.06-4.41q-6.95-25.77-13.63-51.6c-.55-2.15-.32-4.5-.45-6.76,4.16,11,8.34,22,12.46,33,1,2.77,1.87,5.62,2.8,8.44q1,3.28,2,6.59Z" />
        <path class="cls-25" d="M3100.45,1476.48l-2-6.59Z" />
        <path class="cls-13"
            d="M2699.49,144.08a7.74,7.74,0,0,1,.64,1.29c0,.11-.39.35-.6.53A2.18,2.18,0,0,1,2699.49,144.08Z" />
        <path class="cls-12"
            d="M615.94,746.05c3,3.66,1.92,7.06,0,10.93-10.16,20.1-22.41,39.16-29.3,60.89-1.75,5.52-5.85,10.3-9,15.38-6,9.9-11.82,20-18.32,29.59-9.83,14.52-20.25,28.64-30.31,43-5.51,7.88-11.15,15.69-16.11,23.91-9.42,15.61-18.67,31.34-27.43,47.32-4.46,8.12-7.59,17-11.57,25.35-1.31,2.74-3.43,5.1-5.25,7.75-6.19-3.32-5.11-8-4.41-12,1.8-10.42,4.16-20.73,6.13-31.12a67.89,67.89,0,0,0,1.4-11.77c.15-16.3-.11-32.62.11-48.92.21-15.95-1.56-31.68-3.75-47.44-1.33-9.48-1.47-19.12-2.37-28.66-.2-2.14-1.33-4.2-2-6.3.11-2.62,0-5.26.35-7.86,1.27-10.68,2.65-21.35,4-32l3.61-4c1.23,5.48,3,10.9,3.6,16.45,2.32,20.29,16.94,30.41,32.36,39.93a8.51,8.51,0,0,0,4.73,1.23c9.91-.64,19.88-1.35,28.24-7.62,8.19-6.14,16.37-12.31,24.26-18.82,3-2.46,5.13-5.93,7.66-8.94,3.27-3.63,6.84-7,9.77-10.93C593.64,776.36,604.75,761.18,615.94,746.05Z" />
        <path class="cls-13"
            d="M615.94,746.05c-11.19,15.13-22.3,30.31-33.62,45.34-2.93,3.89-6.5,7.3-9.78,10.93l-3.58-1c-.51-12.16-1-24.32-1.55-36.47-.32-6.56-.85-13.12-1.29-19.68,0-.66-.1-1.31-.1-2q.15-22.62.31-45.23l5.4,0c.37,11.9.93,23.8,1.07,35.7.22,17.63.12,35.26.22,52.88,0,.88.58,1.75,1.3,3.81,2.16-2.35,4-4,5.4-5.94,13.4-18.18,26.53-36.56,40.19-54.54a29.79,29.79,0,0,0,6.3-19.29q-.47-102.39-.56-204.77c0-16.63.46-33.27.71-49.9h5.32c.35,18.25.77,36.49,1,54.74.31,22.61.6,45.21.69,67.82.17,42.45.19,84.91.28,127.36,0,1.27.12,2.54.27,5.27l6.28-5.16,5.95.09c-1.74,2.75-3.29,5.65-5.27,8.21C632.65,725,624.27,735.48,615.94,746.05Z" />
        <path class="cls-13"
            d="M561.1,643.14c4.64-9.3,5.45-19.16,5.1-29.42-.44-13.06-.11-26.14-.11-40.77L555.67,584.8c-.52-1.68-1.58-3.42-1.41-5,.16-1.42,1.56-2.81,2.63-4,6.78-7.73,10.4-16.4,8.89-26.93-.42-2.86.15-5.87.27-8.81h5.28c.18,27.51.45,55,.51,82.51.06,23.83-.11,47.66-.17,71.49h-5.36c-.15-13.76-.33-27.51-.44-41.27C565.84,648.71,566.06,644.66,561.1,643.14Z" />
        <path class="cls-14"
            d="M569,801.36l3.58,1c-2.52,3-4.67,6.48-7.65,8.94-7.89,6.51-16.07,12.68-24.26,18.82-8.36,6.27-18.33,7-28.24,7.62a8.51,8.51,0,0,1-4.73-1.23c-15.42-9.52-30-19.64-32.36-39.93-.63-5.55-2.37-11-3.6-16.45.18-2.22.37-4.43.58-7,.94.7,1.79,1,1.81,1.4.9,14.13,9.68,24.31,17.39,35.06.71,1,.63,2.51.91,3.79a7.57,7.57,0,0,1-.88.91L487.82,812l-2-2-1.46-2.08,1.48,2.06,2,2c1.33,2,2.66,4.07,4,6.1l-.1-.11,2.1,2.1-.09-.08,4.1,2.06-.1-.07c.26,4,3.09,4.17,6.09,4.07l-.07-.06c.93,5,4.89,5.59,8.9,6,11.9,1.21,21.71-3.32,30.7-10.76C551.73,814.33,560.44,808,569,801.36Z" />
        <path class="cls-13"
            d="M497.39,730c2.2,3.19,4.06,1.24,5.42-.63C513.32,715,524.07,700.72,534,686c8.5-12.59,16-25.82,24.07-38.72.54-.86,1.74-1.3,2.58-2,2.86,3.4.4,6.33-1.13,9.08a629,629,0,0,1-46.43,70.83c-2.78,3.71-6,7.11-9,10.65l-2.45,2.45c-9.62,1-14.32-6.36-20.16-11.81l2.75-2.77,7.35,4Z" />
        <path class="cls-13"
            d="M554.81,586c-7.72,9.75-14.91,20-23.3,29.13-8.88,9.67-12.67,21.3-15.87,33.41-2.77,10.47-5.44,21-8.15,31.46h-5.56q9-33,17.89-66c2.71,1.55,4.83,1.26,6-1.92l0-2.13-.07.08c7-2,8.91-9.11,13.54-13.49,3.56-3.36,6.49-7.37,9.85-10.94C551.05,583.62,553.12,583.3,554.81,586Z" />
        <path class="cls-10"
            d="M468.09,784.1c-1.34,10.68-2.72,21.35-4,32-.31,2.6-.24,5.24-.35,7.86q-2.12,5.24-4.24,10.46l-1.62-.18c0-3.71-.38-7.46.06-11.12,2.57-21.27,5.32-42.51,8.11-63.76.15-1.17,1.18-2.23,1.81-3.34.52,1.15,1.53,2.31,1.49,3.43C469.05,767.69,468.54,775.9,468.09,784.1Z" />
        <path class="cls-14"
            d="M501.93,680h5.56q-4.31,21.15-8.6,42.29c-.52,2.57-1,5.14-1.5,7.71l-5.76-2.3q4-18.6,8.09-37.19C500.48,687,501.2,683.5,501.93,680Z" />
        <path class="cls-14"
            d="M525.84,612.08c-1.19,3.18-3.31,3.47-6,1.92,1.44-9.47,2.88-19,4.45-29.33,5.77,4.26-.29,9.15,1.88,12.86,2.51,4.28.32,8.35-.35,12.5l.07-.08Z" />
        <path class="cls-14"
            d="M501.69,738.29l2.45-2.45,12,6.95-20.13,3-.37.43-12-1.8c.07-.77.15-1.55.23-2.32h20.78Z" />
        <path class="cls-14"
            d="M492.39,813.36c6.83.95,10.16,6.49,15.28,11.33L503.82,826l.07.06L497.8,822l.1.07L493.8,820l.09.08-2.1-2.1.1.11c-.13-1.26-.25-2.53-.38-3.79A7.57,7.57,0,0,0,492.39,813.36Z" />
        <path class="cls-14"
            d="M484.28,723.71l-2.75,2.77c-3.23-2.85-8.64-3.7-9-10C479.08,715.08,480.73,721,484.28,723.71Z" />
        <path class="cls-14" d="M571.33,540h-5.28q-.13-3-.29-6h5.56C571.32,536,571.33,538,571.33,540Z" />
        <path class="cls-14" d="M566.31,694h5.36l.06,4-5.4,0C566.33,696.67,566.32,695.33,566.31,694Z" />
        <path class="cls-14" d="M496,745.81l2.62,1c-.21.24-.52.73-.6.7-.82-.39-1.59-.85-2.39-1.28Z" />
        <path class="cls-21"
            d="M2695.5,1476.21c-2.76,14.67-8.69,27.63-19.19,38.57-13.89,14.46-29.72,25.65-49.4,30.3-6,1.42-12.52,1.26-18.8,1.25q-75.93-.13-151.86-.53c-78.81-.47-157.61-1.32-236.42-1.56-105.24-.32-210.47-.2-315.71-.29-25.64,0-51.28,0-76.92-.24-21.46-.21-42.91-1.08-64.37-1.14q-130.75-.36-261.5-.39-150.87-.14-301.74-.19c-2,0-4,.17-6,.26-27.57-.16-55.13-.22-82.7-.53-14.51-.16-29-1-43.54-1-19.54,0-39.08.67-58.62.67-16.28,0-32.57-.71-48.85-.78-35.26-.15-70.53-.07-105.8-.1-15.24,0-30.48-.26-45.71-.07-13.22.17-26.44,1.11-39.66,1.14-14.2,0-28.41-.6-42.61-.93-2.66-.06-5.32-.12-8-.12-19.22,0-38.53-1.11-57.66.3-25.05,1.83-44.23-9.56-61.65-24.84-24.28-21.29-32.12-49.15-29.83-80.71.94-12.92.53-26,.76-38.93.39-22.94,1.06-45.88,1.15-68.82.11-26.9-.5-53.79-.4-80.68.12-31.57.69-63.14,1-94.71.09-9,.24-18-.2-27-.31-6.29,1.29-10.93,7.2-13.93,2.6-1.33,4.73-3.61,7.07-5.46,5.45,5.23,6.64,11.64,6.32,19-.5,11.65.59,23.38-.26,35-3.54,48.22.28,96.56-2.27,144.72-1.94,36.62-.57,73.19-1.66,109.76-.22,7.27-1.31,14.5-1.8,21.77-1.23,18.24,6.83,33.59,15.65,48.57A96.14,96.14,0,0,0,629,1514.3a12.09,12.09,0,0,0,7.81,2.67c6.45.08,12.85,2.36,19.32,3.41a92,92,0,0,0,14.76,1.56c161.9.1,323.82-1.53,485.69.56,186.49,2.41,373,.32,559.44,1.71,10.19.07,20.37,2.09,30.56,3.14a89.21,89.21,0,0,0,8.94.57c72.62,0,145.28,1.57,217.85-.36,104.55-2.77,209.07-.79,313.59-1.37s209.21-.2,313.81-.07a85.22,85.22,0,0,0,25.42-3.87c23.18-7.07,45.22-15.5,59.38-37.18C2687.82,1481.65,2690,1476.62,2695.5,1476.21Z" />
        <path class="cls-14"
            d="M739.81,1485.64l11.9-.11c3.19,4.08,6.59,3.23,10.07.43,8.54-.33,17.08-.89,25.62-.94,18.73-.1,37.47,0,56.2.1,36.82.15,73.63.38,110.44.44,51.86.09,103.72,0,155.58.08,54.86.11,109.73.42,164.59.6,26.68.09,53.36-.07,80,.14,28.83.23,57.66.95,86.5,1.1,42.92.21,85.85.11,128.78.18,2.64,0,5.29.29,7.93.45l-2,5.33c-25.93,0-51.86.12-77.79,0-29.83-.19-59.66-.83-89.5-.93-56.91-.19-113.83-.1-170.74-.18q-141.69-.21-283.36-.54c-70.11-.26-140.23-.94-210.34-1.45-1.32,0-2.65-.22-4-.34C739.78,1488.51,739.79,1487.07,739.81,1485.64Z" />
        <path class="cls-16"
            d="M1773.41,1488.77c16.82-.15,33.65-.45,50.47-.42,21.09.05,42.18.44,63.26.57q59.52.39,119,.63,88.26.24,176.53.31,84.32.17,168.65.43a35.61,35.61,0,0,1,3.95.44c0,1.71,0,3.41,0,5.12-51,0-101.92.19-152.87.1q-142.79-.26-285.57-.77c-44.51-.17-89-.75-133.52-1.18-3.32,0-6.64-.33-10-.5Z" />
        <path class="cls-13"
            d="M739.81,1485.64c0,1.43,0,2.87,0,4.31-21.7-1-43.53,0-64.47-8.08s-34.58-22.47-42.87-43.09c-7.14-17.78-7.57-36.08-7.4-54.77.3-32.86-.32-65.72-.22-98.58.16-53.11.57-106.23.92-159.34,0-3.32.42-6.63.65-9.95,2,.93.49,6.77,5.31,3.87-.21,50.54-.33,101.07-.64,151.61-.27,44.12-1.11,88.24-1,132.36.07,28.75,18.05,64.57,56.93,75.74,14,4,28.51,5.11,43.09,5A89.68,89.68,0,0,1,739.81,1485.64Z" />
        <path class="cls-4"
            d="M1585.53,1488.3c13.54-.14,27.08-.47,40.62-.39,27.76.14,55.51.5,83.27.77l0,4.79q-51.93.19-103.85.36c-6.65,0-13.3-.23-20-.36Z" />
        <path class="cls-4" d="M1773.41,1488.77l0,4.73h-57.84c0-1.59,0-3.19,0-4.78Z" />
        <path class="cls-4" d="M2355.3,1495.85c0-1.71,0-3.41,0-5.12l17.92,0c0,1.63,0,3.27,0,4.91Z" />
        <path class="cls-16" d="M1585.53,1488.3l.06,5.17-10.13,0,2-5.33Z" />
        <path class="cls-16" d="M1715.52,1488.72c0,1.59,0,3.19,0,4.78l-6.15,0,0-4.79Z" />
        <path class="cls-13"
            d="M631.63,1116c0,.66,0,1.32,0,2a8.62,8.62,0,0,1-.74-1.41C630.9,1116.48,631.39,1116.2,631.63,1116Z" />
        <path class="cls-3" d="M525.7,1147.84l1-.78-.76,1Z" />
        <path class="cls-10"
            d="M626.34,828.61c-2.48,3.81-4.58,7.94-7.49,11.38-12.25,14.44-24.76,28.66-37.14,43q-14.64,17-29.16,34c-7.72,9.12-15.23,18.4-22.94,27.51-.78.93-2.29,1.24-3.47,1.84-.25-.28-.52-.54-.79-.8,1.64-8.44,8.92-13,13.74-19.08,13.58-17.14,28-33.64,42.16-50.28,5.59-6.56,11.51-12.84,17.33-19.2q13.42-14.68,26.9-29.3C625.78,828,626.07,828.29,626.34,828.61Z" />
        <path class="cls-18"
            d="M418.59,601.16c.5,4.38,1.24,6.78,1,9.06-3,24.63-1.14,49.79-7.45,75.77C409.71,678.08,414.81,611.54,418.59,601.16Z" />
        <path class="cls-18" d="M421.08,631c4.38,13.5-.74,62-6.87,71.92C416.47,679.29,418.67,656.29,421.08,631Z" />
        <path class="cls-8"
            d="M333.68,979.8c.19-1.31.09-2.77.63-3.92,8.56-18.22,17.22-36.41,26.54-56.08.38,2.42,1,3.62.63,4.39q-12.42,27.12-25.06,54.14c-.38.81-1.48,1.28-2.24,1.91Z" />
        <path class="cls-18"
            d="M697.36,725.75c.19-.64.19-1.44.58-1.88q13.6-15.09,27.32-30.08c.72-.78,2.06-1,3.79-.68-9.66,11.85-17.73,25-31,33.34Z" />
        <path class="cls-19"
            d="M649.87,696.21l11.37-10.44,4.55.23a9.89,9.89,0,0,0,.81.64l-14.82,15.42C651.14,700.11,650.51,698.16,649.87,696.21Z" />
        <path class="cls-16" d="M649.87,696.21c.64,1.95,1.27,3.9,1.91,5.85l-5.61,4.05-5.95-.09Z" />
        <path class="cls-8"
            d="M563.51,885.73c1.15-4.83,5-7,8.82-9.29-.15,5.48-3.57,8.2-8.1,10A9.63,9.63,0,0,0,563.51,885.73Z" />
        <path class="cls-18" d="M731.49,687.75l5.76-8.09c1.43,5.35-1.21,7.54-5.09,8.76Z" />
        <path class="cls-8" d="M363.84,914c0-4.34,1.31-8,6-11.85-.38,6-2,9.49-5.85,11.93Z" />
        <path class="cls-8"
            d="M698.06,726.45l-5.72,7.78c-1.57-5.43,1.33-7.28,5-8.48C697.36,725.75,698.06,726.45,698.06,726.45Z" />
        <path class="cls-8" d="M586.05,862.19l-5.91,6.15-.56-.56c1.93-2,3.86-4.11,5.8-6.16Z" />
        <path class="cls-23" d="M589.65,855.72l3.57-5.7c2,4.34-.1,5.59-3.11,6.15Z" />
        <path class="cls-8" d="M590.11,856.17l-4.06,6-.67-.57,4.27-5.9Z" />
        <path class="cls-10"
            d="M625.48,827.68c.74-.9,1.47-1.81,2.21-2.72l1.18,1.17-2.54,2.47C626.07,828.29,625.78,828,625.48,827.68Z" />
        <path class="cls-23"
            d="M601,844.43l-1.42.87c-.23-.66-.46-1.32-.68-2,.52-.15,1.2-.57,1.54-.38S600.83,843.9,601,844.43Z" />
        <path class="cls-8" d="M363.94,914.05c-.21.91-.41,1.81-.62,2.72l-1.17-.57c.56-.75,1.13-1.49,1.69-2.23Z" />
        <path class="cls-18" d="M743.57,673.89a7.73,7.73,0,0,0,1.86.07L742,676.21l-.35-.35Z" />
        <path class="cls-18" d="M732.16,688.42,731,689.53c.16-.59.33-1.18.49-1.78Z" />
        <path class="cls-10"
            d="M526.14,946.34l-1.21,1c.14-.61.29-1.23.42-1.84C525.62,945.8,525.89,946.06,526.14,946.34Z" />
        <path class="cls-8" d="M323.93,1012l.89-.92c-.05.2,0,.5-.17.59a2.72,2.72,0,0,1-.79.26Z" />
        <path class="cls-8" d="M580.14,868.34l-1.88,2.13c-.24-.26-.5-.51-.76-.75.7-.64,1.39-1.29,2.08-1.94Z" />
        <path class="cls-8" d="M578.26,870.47l-1.77.44c.34-.39.68-.79,1-1.19C577.76,870,578,870.21,578.26,870.47Z" />
        <path class="cls-18" d="M742,676.21c-.32.41-.63.83-.94,1.24.2-.53.4-1.05.59-1.58Z" />
        <path class="cls-8" d="M564.23,886.44l-1.43.72c.24-.48.48-.95.71-1.43A9.63,9.63,0,0,1,564.23,886.44Z" />
        <path class="cls-16" d="M665.79,686l-4.55-.23,4.6-3.63C665.83,683.42,665.81,684.71,665.79,686Z" />
        <path class="cls-24"
            d="M344,1494c-3-1.93-6.36-3.44-8.83-5.88-10-9.86-21.62-13.33-35.34-10.53a120.3,120.3,0,0,1-15.69,2.16c-2.05.13-4.2-1.18-6.31-1.84,3-1.32,5.9-2.82,9-3.93,20.25-7.3,38.7-17.56,53.38-33.56,5.77-6.29,10.47-13.57,15.65-20.39,1.12,22.51-.49,44.71-8,66.16A71.1,71.1,0,0,1,344,1494Z" />
        <path class="cls-13"
            d="M626.28,434l-.81-62.81c-.17-12.93-.43-25.85-.45-38.78,0-25.27.12-50.54.06-75.81-.06-27.53-.94-55.09-.25-82.6.73-29.11,14.22-68.34,52.45-80.7,16.22-5.24,32.5-6.82,49-7.19,38.26-.85,76.54-.87,114.82-1.16q63.33-.47,126.65-.79c2.65,0,5.31.26,8,.4,0,1.79,0,3.58,0,5.36-11.29.16-22.58.44-33.86.47-45.32.1-90.65.07-136,.21-23.6.08-47.2.52-70.8.61-15.2,0-30.3.57-45.15,4.39-33.72,8.67-51.44,32.2-59,64.48-1.78,7.57-.61,15.87-.62,23.83,0,25.94-.16,51.89.07,77.84.39,44.45,1.09,88.91,1.5,133.37.13,12.95-.26,25.91-.42,38.87Z" />
        <path class="cls-4" d="M975.68,89.94c0-1.78,0-3.57,0-5.36l47.91-.07L1021.7,90Z" />
        <path class="cls-4" d="M626.28,434h5.12q.14,11,.28,22h-5.32Q626.32,445,626.28,434Z" />
        <path class="cls-16" d="M761.78,1486c-3.48,2.8-6.88,3.65-10.07-.43Z" />
        <path class="cls-18"
            d="M2846.93,656q-.34-18.4-.68-36.81l1.12-.5,2,5.31c1.08,13.14,2.19,26.28,3.23,39.43.95,12.12,1.83,24.26,2.85,37.87-5.87-3.68-3.65-8.38-4.56-12-1-3.77-1.68-7.61-4.15-11.23l4.35,38.44c-7.49-13.39-7.33-28.07-8.3-42.55-.47-8.65-.94-17.3-1.46-27,4.86,2.46,3.27,6.2,4,9,.13,2.15.26,4.29.38,6.44h1.26Zm1.44,13.3-1.15.21.6,3,1-.18C2848.67,671.26,2848.52,670.27,2848.37,669.27Z" />
        <path class="cls-18"
            d="M2721.24,652.12l9.4,1.19c-10.12,6.3-19.37,5.73-28.43,8,5.26-10.17,10.15-12.46,18.87-9.34l-2.61.91c.2.23.54.7.6.67C2719.82,653.08,2720.53,652.59,2721.24,652.12Z" />
        <path class="cls-8"
            d="M2917.13,968c-8.72-12.17-12.41-26.53-18.6-41.28l4.53,1.28,8.18,20,1.93,4,2.1,6c.62,1.35,1.25,2.7,1.88,4C2917.14,964,2917.14,966,2917.13,968Z" />
        <path class="cls-8" d="M2925.14,982c-6-2.76-6.73-8.57-8-14C2923.45,970.54,2924.38,976.22,2925.14,982Z" />
        <path class="cls-8"
            d="M2899.15,920c-.31,1.91-.44,4.31-3.12,1.76a27.43,27.43,0,0,1-2.82-3.73c.16-2.23.67-3.84,3-1.5C2897.3,917.56,2898.19,918.81,2899.15,920Z" />
        <path class="cls-3" d="M2917.15,962c-.63-1.35-1.26-2.7-1.88-4C2917.72,958.44,2920.14,959,2917.15,962Z" />
        <path class="cls-3" d="M2913.17,952l-1.93-4C2913.67,948.43,2916.13,948.91,2913.17,952Z" />
        <path class="cls-8" d="M2687,743.87c.34-.86.69-1.71,1-2.56.24.2.72.54.69.59-.44.76-.95,1.48-1.43,2.22Z" />
        <path class="cls-2"
            d="M2655.05,956.05c0-1.7.09-3.41.13-5.11.78,1.58,1.57,3.15,2.35,4.73l-.54.54A7.91,7.91,0,0,1,2655.05,956.05Z" />
        <path class="cls-2" d="M2657.53,955.67l.75,1.27-1.29-.73Z" />
        <path class="cls-2" d="M2741.4,636.27l-1.14,1.17c.16-.61.32-1.22.47-1.83Z" />
        <path class="cls-2" d="M2775.37,721.77l-2.31,2.26-3-4.07C2773.09,716.82,2774.33,719,2775.37,721.77Z" />
        <path class="cls-6"
            d="M2846.93,656v6.44h-1.26c-.12-2.15-.25-4.29-.38-6.44C2845.84,656,2846.39,656,2846.93,656Z" />
        <path class="cls-6"
            d="M2989.23,1264.24q-12.49,12.78-25,25.58a252.64,252.64,0,0,0-45.35,62.42c-1.46,2.86-3.77,5.28-5.69,7.91,3-8,5.29-16.32,9-24,15.05-31.45,29.14-63.3,38.68-96.89a281.15,281.15,0,0,0,8.1-40.71c1.66-12.75,1.56-25.74,2.23-38.62,5.4,1,5.07,5.91,5.65,9.36,2.44,14.6,4.4,29.29,6.29,44C2985.27,1230.24,2987.2,1247.25,2989.23,1264.24Z" />
        <path class="cls-22"
            d="M307.75,1441.9l-8.88,7.32-15-48,2.07-1.38,14,10.59c.57-8,1.09-15.35,1.73-24.47,3.14,2.58,5.41,3.59,6.3,5.32,5.94,11.51,11.63,23.16,17.3,34.81,1.47,3,1.49,5.87-2.7,7.63-4.9-10.41-9.87-21-14.85-31.53l-1.69.43c-.3,2.1-.59,4.2-.89,6.3-1.15,7.87-1.45,8.17-9.65,9.34,2.23,8,4.45,15.88,6.79,24.21l5.66-.37Z" />
        <path class="cls-22"
            d="M194.69,1422.82l12.22,36.59c4.69-13.93,3-27.24,8.49-38.73l2.4.31c-.56,4.19-1.09,8.38-1.68,12.57-.65,4.61-1.42,9.2-2,13.82s-.82,9.29-1.54,13.89c-.68,4.31,1.61,9.26-2.75,13.61-8.89-9.45-9.71-22.4-16.88-34.61-1.9,8.49-3.12,15.09-4.9,21.54-1.67,6.06-1.65,13-8.56,19,4.52-20.65,8.64-39.43,12.76-58.21Z" />
        <path class="cls-22"
            d="M292,1452.89l-8.53,4.4c1.71-13.92-5.57-24.92-8.43-38.26-5,4.33-4.84,16.42-14.85,8.18.5,12.49,1,24.39,1.32,36.29,0,.68-2,1.4-4,2.76-1.06-17.86-2.07-34.79-3.07-51.67,4.79.92,4.79.92,12.17,10.07,2.27-7,4.27-13.12,7-21.53C283,1420,285.26,1436.66,292,1452.89Z" />
        <path class="cls-22"
            d="M222.64,1448.59c-2-9.31,3.12-16.26,5.33-23.89,1.5-5.15,5.4-7.18,10.65-6.75,4.84.4,6.75,3.9,7.75,7.87,2.57,10.15,3.16,20.53-1.14,30.19-2,4.58-6,8.73-10,11.86-5,3.91-9.4,1.93-11.19-4.24a40.32,40.32,0,0,1-1.32-7.82C222.47,1453.19,222.64,1450.53,222.64,1448.59Zm9.69,15.66c13.89-12.16,15.19-35,2.88-42C225.61,1436,224.2,1453.64,232.33,1464.25Z" />
        <path class="cls-22"
            d="M340,1420c-.05-2.49.66-5.33-.3-7.4-5.1-11.1-10.61-22-15.92-32.85l-6.87,2.07-.73-1.3,12.76-11.86,1.52,1-2.92,5.79c5.71,11.62,11.35,23.2,17.16,34.69.36.7,2.09.71,3.18,1,.11,1.68.23,3.35.34,5l-4,4.16Z" />
        <path class="cls-11" d="M340,1420l4.26.37-8.24,8.73C334.69,1424.27,337,1422,340,1420Z" />
        <path class="cls-11" d="M348.2,1416.25c-.11-1.68-.23-3.35-.34-5l6.19-5.85c.13,1.5.25,3,.38,4.51Z" />
        <path class="cls-24" d="M274,1478.25c-.53,2.49-1.14,4.78-4.08,1.79Z" />
        <path class="cls-22" d="M307.91,1442.06l.88-.87c-.08.18-.11.44-.24.51a2.93,2.93,0,0,1-.8.2Z" />
        <path class="cls-22"
            d="M3028.26,1472.12c-3.64,8.32,4.81,15.51-1,23.54-2-7.41-4.37-14.75-5.9-22.26-1.72-8.43-2.77-17-4-25.55-.43-3.16-1.72-6.77,2.27-8.81a10.57,10.57,0,0,1,11.29.64c7.16,4.62,11,15.4,8.18,23.58a14.15,14.15,0,0,1-1.07,2.3c4.13,8.53,8,16.11,11.43,23.86.64,1.42-.17,3.5-.44,6.76C3041,1487.94,3041.6,1473.68,3028.26,1472.12Zm-3.1-4.88c9.32-3,11.09-4.89,10.33-10.38-1.08-7.64-6.59-12.73-14.47-12.9C3022.35,1451.44,3023.67,1458.84,3025.16,1467.24Z" />
        <path class="cls-22"
            d="M3083.19,1467.53c.43,7.49-.66,14.62-5.67,20.55-5.66,6.7-14.19,5.77-17.54-2.28-5.35-12.86-7.09-26.19-2.72-39.79a27.44,27.44,0,0,1,2.89-6.3c4.31-6.84,10.22-7,15.14-.53C3079.34,1444.49,3083.08,1457.9,3083.19,1467.53Zm-24.75-7c1.46,6.53,2.89,13.28,4.5,20,.84,3.54,3.16,6.07,6.82,6.27,4.32.23,6.62-2.86,7.54-6.61,3.21-13.2.77-25.66-6.18-37.08-3-4.91-7.58-4.14-9.4,1.44C3060.11,1449.5,3059.56,1454.82,3058.44,1460.51Z" />
        <path class="cls-22"
            d="M2938.53,1507.22l-3.42,4.56,7.13,11.94-5.42,6.65c-1-4.23-1.79-8.13-2.93-11.93-3.81-12.64-7.89-25.21-11.51-37.91-.7-2.45.22-5.35.54-10.49,14.37,13.08,23.34,27.42,35.2,40.06l-4.48,5.91c-1.09-.73-1.93-1-2-1.37-.92-6-3.25-10.6-10.37-10.44-.56-.55-1.11-1.11-1.66-1.66.46-1.47,1.77-3.58,1.23-4.31-3.56-4.75-7.52-9.21-11.34-13.76l-1.74,1.16c1.71,6,3.29,12,5.27,17.95.31,1,2.39,1.31,3.65,2Z" />
        <path class="cls-22"
            d="M2957,1492.86a10.92,10.92,0,0,1,2.35,1.38c2.57,2.53,4.78,6.06,9.15,4.23,2.94-1.23,4.89-9.89,3.19-13.69-2.17-4.86-5.68-8-11.28-8.67a20.91,20.91,0,0,1-8.43-2.53c-6.64-4.16-6-15.06,1.23-18.17,5.37-2.3,6.39,2.4,8.62,7.58l-8.39-3.21c-3.63,4.16-1.82,7.21,2.15,9.46,1.66.94,3.84,1,5.79,1.38,15.08,3.08,20.49,18.54,10.74,30.77-3.49,4.39-8.16,4.95-12,.92-2.11-2.22-3.38-5.24-5-7.9Z" />
        <path class="cls-24"
            d="M2913.18,1461.87q.17-18,.32-36a17.43,17.43,0,0,1,3.66,1.39c7.35,4.86,14.64,9.82,22,14.74-6.91,5.88-13.76,11.82-20.78,17.57C2916.94,1460.75,2914.91,1461.14,2913.18,1461.87Z" />
        <path class="cls-22"
            d="M3000.46,1497.81c-3.38-15.76-6.75-31.52-10.21-47.66l-15.9,3c3.68-8.51,10.83-7.47,16.12-9.36,5.5-2,11.37-2.89,18.56-4.62-1.58,9.45-9.63,5.91-13.37,10.08.85,15.75,7.23,31.47,8.49,47.88Z" />
        <path class="cls-22"
            d="M2941.28,1504.2c-.92,1-1.84,2-2.75,3l-1.84-1.69,2.93-3C2940.17,1503.09,2940.72,1503.65,2941.28,1504.2Z" />
        <path class="cls-7" d="M2939.08,1342c-.15.28-.3.55-.44.83.15-.27.3-.54.46-.81Z" />
        <path class="cls-3" d="M2959.1,1066l1.67-2.68,1.63,3-3.34-.36Z" />
        <path class="cls-3" d="M497.8,822l6.09,4.07C500.89,826.13,498.06,826,497.8,822Z" />
        <path class="cls-3" d="M491.51,814.27c.13,1.26.25,2.53.38,3.79-1.34-2-2.67-4.07-4-6.1l-.07.08Z" />
        <path class="cls-3" d="M493.8,820l4.1,2.06Z" />
        <path class="cls-3" d="M485.86,810l-1.48-2.06,1.46,2.08Z" />
        <path class="cls-3" d="M487.89,812l-2-2,0,0,2,2Z" />
        <path class="cls-3" d="M491.79,818l2.1,2.1Z" />
        <path class="cls-3" d="M525.84,612.08l0-2.13Z" />
        <path class="cls-6" d="M2848.37,669.27c.15,1,.3,2,.44,3l-1,.18-.6-3Z" />
        <path class="cls-6" d="M2721.24,652.12c-.71.47-1.42,1-2.17,1.38-.06,0-.4-.44-.6-.67l2.61-.91Z" />
        <path class="cls-23"
            d="M232.33,1464.25c-8.13-10.61-6.72-28.22,2.88-42C247.52,1429.23,246.22,1452.09,232.33,1464.25Z" />
        <path class="cls-23"
            d="M3025.16,1467.24c-1.49-8.4-2.81-15.8-4.14-23.28,7.88.17,13.39,5.26,14.47,12.9C3036.25,1462.35,3034.48,1464.24,3025.16,1467.24Z" />
        <path class="cls-23"
            d="M3058.44,1460.51c1.12-5.69,1.67-11,3.28-16,1.82-5.58,6.41-6.35,9.4-1.44,7,11.42,9.39,23.88,6.18,37.08-.92,3.75-3.22,6.84-7.54,6.61-3.66-.2-6-2.73-6.82-6.27C3061.33,1473.79,3059.9,1467,3058.44,1460.51Z" />
        <path class="cls-3"
            d="M2939.62,1502.54l-2.93,3c-1.26-.64-3.34-1-3.65-2-2-5.91-3.56-11.95-5.27-17.95l1.74-1.16c3.82,4.55,7.78,9,11.34,13.76C2941.39,1499,2940.08,1501.07,2939.62,1502.54Z" />
    </g>
</svg>